<svg width="329" height="327" viewBox="0 0 329 327" fill="none" xmlns="http://www.w3.org/2000/svg">
<path d="M253.281 123.484L246.6 59.26H267.2L259.406 123.484H253.281Z" stroke="#8A8C8B"/>
<rect x="245.388" y="51.9893" width="23.0235" height="12.1176" fill="#FCB040"/>
<path d="M67.2588 74.4067V105.307M67.2588 74.4067L99.9764 105.307M67.2588 74.4067H83.6176M67.2588 105.307L99.9764 74.4067M67.2588 105.307H83.6176M99.9764 105.307V74.4067M99.9764 105.307H83.6176M99.9764 74.4067H83.6176M83.6176 74.4067V105.307" stroke="#D6D6D6"/>
<path d="M67.2588 10V40.9M67.2588 10L99.9764 40.9M67.2588 10H83.6176M67.2588 40.9L99.9764 10M67.2588 40.9H83.6176M99.9764 40.9V10M99.9764 40.9H83.6176M99.9764 10H83.6176M83.6176 10V40.9" stroke="#D6D6D6"/>
<path d="M50.8999 41.2952L19.9999 41.2952M50.8999 41.2952L19.9999 74.0128M50.8999 41.2952L50.8999 57.654M19.9999 41.2952L50.8999 74.0128M19.9999 41.2952L19.9999 57.654M19.9999 74.0128L50.8999 74.0128M19.9999 74.0128L19.9999 57.654M50.8999 74.0128L50.8999 57.654M50.8999 57.654L19.9999 57.654" stroke="#D6D6D6"/>
<path d="M82.4058 41.2952L51.5058 41.2952M82.4058 41.2952L51.5058 74.0128M82.4058 41.2952L82.4058 57.654M51.5058 41.2952L82.4058 74.0128M51.5058 41.2952L51.5058 57.654M51.5058 74.0128L82.4058 74.0128M51.5058 74.0128L51.5058 57.654M82.4058 74.0128L82.4058 57.654M82.4058 57.654L51.5058 57.654" stroke="#D6D6D6"/>
<path d="M113.912 41.2952L83.0116 41.2952M113.912 41.2952L83.0116 74.0128M113.912 41.2952L113.912 57.654M83.0116 41.2952L113.912 74.0128M83.0116 41.2952L83.0116 57.654M83.0116 74.0128L113.912 74.0128M83.0116 74.0128L83.0116 57.654M113.912 74.0128L113.912 57.654M113.912 57.654L83.0116 57.654" stroke="#D6D6D6"/>
<path d="M145.417 41.2952L114.517 41.2952M145.417 41.2952L114.517 74.0128M145.417 41.2952L145.417 57.654M114.517 41.2952L145.417 74.0128M114.517 41.2952L114.517 57.654M114.517 74.0128L145.417 74.0128M114.517 74.0128L114.517 57.654M145.417 74.0128L145.417 57.654M145.417 57.654L114.517 57.654" stroke="#D6D6D6"/>
<path d="M176.923 41.2952L146.023 41.2952M176.923 41.2952L146.023 74.0128M176.923 41.2952L176.923 57.654M146.023 41.2952L176.923 74.0128M146.023 41.2952L146.023 57.654M146.023 74.0128L176.923 74.0128M146.023 74.0128L146.023 57.654M176.923 74.0128L176.923 57.654M176.923 57.654L146.023 57.654" stroke="#D6D6D6"/>
<path d="M208.429 41.2952L177.529 41.2952M208.429 41.2952L177.529 74.0128M208.429 41.2952L208.429 57.654M177.529 41.2952L208.429 74.0128M177.529 41.2952L177.529 57.654M177.529 74.0128L208.429 74.0128M177.529 74.0128L177.529 57.654M208.429 74.0128L208.429 57.654M208.429 57.654L177.529 57.654" stroke="#D6D6D6"/>
<path d="M239.935 41.2952L209.035 41.2952M239.935 41.2952L209.035 74.0128M239.935 41.2952L239.935 57.654M209.035 41.2952L239.935 74.0128M209.035 41.2952L209.035 57.654M209.035 74.0128L239.935 74.0128M209.035 74.0128L209.035 57.654M239.935 74.0128L239.935 57.654M239.935 57.654L209.035 57.654" stroke="#D6D6D6"/>
<path d="M271.441 41.2952L240.541 41.2952M271.441 41.2952L240.541 74.0128M271.441 41.2952L271.441 57.654M240.541 41.2952L271.441 74.0128M240.541 41.2952L240.541 57.654M240.541 74.0128L271.441 74.0128M240.541 74.0128L240.541 57.654M271.441 74.0128L271.441 57.654M271.441 57.654L240.541 57.654" stroke="#D6D6D6"/>
<path d="M67.2588 105.307V136.207M67.2588 105.307L99.9764 136.207M67.2588 105.307H83.6176M67.2588 136.207L99.9764 105.307M67.2588 136.207H83.6176M99.9764 136.207V105.307M99.9764 136.207H83.6176M99.9764 105.307H83.6176M83.6176 105.307V136.207" stroke="#D6D6D6"/>
<path d="M67.2588 136.812V167.712M67.2588 136.812L99.9764 167.712M67.2588 136.812H83.6176M67.2588 167.712L99.9764 136.812M67.2588 167.712H83.6176M99.9764 167.712V136.812M99.9764 167.712H83.6176M99.9764 136.812H83.6176M83.6176 136.812V167.712" stroke="#D6D6D6"/>
<path d="M67.2588 231.33V262.23M67.2588 231.33L99.9764 262.23M67.2588 231.33H83.6176M67.2588 262.23L99.9764 231.33M67.2588 262.23H83.6176M99.9764 262.23V231.33M99.9764 262.23H83.6176M99.9764 231.33H83.6176M83.6176 231.33V262.23" stroke="#D6D6D6"/>
<path d="M67.2588 168.318V199.218M67.2588 168.318L99.9764 199.218M67.2588 168.318H83.6176M67.2588 199.218L99.9764 168.318M67.2588 199.218H83.6176M99.9764 199.218V168.318M99.9764 199.218H83.6176M99.9764 168.318H83.6176M83.6176 168.318V199.218" stroke="#D6D6D6"/>
<path d="M67.2588 262.836V293.736M67.2588 262.836L99.9764 293.736M67.2588 262.836H83.6176M67.2588 293.736L99.9764 262.836M67.2588 293.736H83.6176M99.9764 293.736V262.836M99.9764 293.736H83.6176M99.9764 262.836H83.6176M83.6176 262.836V293.736" stroke="#D6D6D6"/>
<path d="M67.2588 199.824V230.724M67.2588 199.824L99.9764 230.724M67.2588 199.824H83.6176M67.2588 230.724L99.9764 199.824M67.2588 230.724H83.6176M99.9764 230.724V199.824M99.9764 230.724H83.6176M99.9764 199.824H83.6176M83.6176 199.824V230.724" stroke="#D6D6D6"/>
<path d="M67.2588 294.342V325.242M67.2588 294.342L99.9764 325.242M67.2588 294.342H83.6176M67.2588 325.242L99.9764 294.342M67.2588 325.242H83.6176M99.9764 325.242V294.342M99.9764 325.242H83.6176M99.9764 294.342H83.6176M83.6176 294.342V325.242" stroke="#D6D6D6"/>
<rect x="116.941" y="216.789" width="179.341" height="10.9059" fill="#4B7CCB"/>
<rect x="129.059" y="227.695" width="155.106" height="10.9059" fill="#F0F0F0"/>
<rect x="134.406" y="239.101" width="144.412" height="86.2471" fill="#F7F7F7" stroke="#ECECEC"/>
<rect x="141.177" y="251.93" width="79.9765" height="31.5059" fill="#B7CCEE"/>
<rect x="141.177" y="283.436" width="41.2" height="29.0824" fill="#F5DCB8"/>
<rect x="230.847" y="251.93" width="41.2" height="60.5882" fill="#B7CCEE"/>
<rect x="182.376" y="283.436" width="38.7765" height="29.0824" fill="#D3E4FF"/>
<path d="M247.812 127.724V122.271H264.171V128.936L258.112 134.995H255.083L247.812 127.724Z" fill="#FCB040" stroke="#FCB040"/>
<path d="M255.082 134.995H256.294H258.112V141.054C256.658 141.538 255.486 142.871 255.082 143.477C252.659 146.87 255.284 148.526 256.9 148.93C259.808 148.93 260.535 146.507 260.535 145.295H261.141C262.595 145.295 262.959 146.507 262.959 147.113C261.02 154.868 255.284 153.171 252.659 151.354C247.327 146.022 252.053 141.054 255.082 139.236V134.995Z" fill="#FCB040" stroke="#FCB040"/>
<path d="M230.847 166.501L254.477 147.719" stroke="#8A8C8B"/>
<path d="M242.965 167.107L254.477 147.719" stroke="#8A8C8B"/>
<path d="M259.93 147.719L274.471 167.107" stroke="#8A8C8B"/>
<path d="M285.983 167.107L259.93 147.719" stroke="#8A8C8B"/>
<path d="M243.571 211.942V167.107H285.983V211.942H243.571Z" fill="#4B7CCB" stroke="#4B7CCB"/>
<path d="M243.571 167.107H231.453V211.942H243.571V167.107Z" fill="#B7CCEE" stroke="#B7CCEE"/>
<rect y="323" width="329" height="4" fill="#D9D9D9"/>
<path d="M20.1147 41.7944L83.6741 1.28833L270.115 42.2883" stroke="#D6D6D6"/>
<path d="M83 10V1" stroke="#D6D6D6"/>
<path d="M19.9883 286.318C20.7083 306.88 40.088 306.112 49.6878 303.158C69.1275 310.248 77.5874 299.021 79.3874 292.522C85.1473 278.341 73.9874 270.069 67.6875 267.705C69.1275 262.033 68.8875 255.297 68.5875 252.638C64.2676 238.457 49.3878 238.457 42.4879 240.229C28.8081 244.484 29.5881 260.319 31.6881 267.705C22.3282 271.25 19.9883 281.591 19.9883 286.318Z" fill="#BADC99" stroke="#BADC99"/>
<path d="M69.9883 306.871C70.3424 317.152 79.8734 316.768 84.5946 315.291C94.1551 318.836 98.3157 313.223 99.2009 309.973C102.034 302.883 96.5452 298.746 93.4469 297.565C94.1551 294.729 94.0371 291.361 93.8895 290.031C91.765 282.941 84.4471 282.941 81.0537 283.827C74.3259 285.954 74.7095 293.872 75.7423 297.565C71.1391 299.337 69.9883 304.507 69.9883 306.871Z" fill="#B1D88C" stroke="#B1D88C"/>
<path d="M48.8974 323.424V290.443M48.8974 277.424V290.443M48.8974 290.443L60.9883 277.424M48.8974 290.443L41.9883 286.104" stroke="#808282"/>
<path d="M85.261 323.424V307.651M85.261 301.424V307.651M85.261 307.651L90.9883 301.424M85.261 307.651L81.9883 305.575" stroke="#808282"/>
<path d="M224.788 271.318L227.212 251.93H274.47L277.5 271.318H224.788Z" fill="#FCB040" stroke="#FCB040"/>
</svg>
