<svg width="277" height="123" viewBox="0 0 277 123" fill="none" xmlns="http://www.w3.org/2000/svg">
<path fill-rule="evenodd" clip-rule="evenodd" d="M160.509 0.538077C160.531 0.22555 160.904 -0.0150276 161.343 0.000732135C161.791 0.0168314 162.243 0.0363281 162.697 0.059302C163.135 0.0814596 163.465 0.352461 163.434 0.664599C163.403 0.976738 163.023 1.21181 162.584 1.18966C162.141 1.16723 161.7 1.1482 161.263 1.13249C160.824 1.11673 160.486 0.850605 160.509 0.538077ZM153.995 0.605111C154.032 0.916974 153.706 1.19067 153.268 1.21642C152.825 1.24251 152.385 1.27209 151.95 1.30504C151.513 1.33809 151.121 1.11263 151.074 0.801458C151.028 0.490284 151.345 0.211233 151.781 0.178181C152.229 0.14429 152.681 0.113881 153.137 0.0870679C153.575 0.0613127 153.959 0.293249 153.995 0.605111ZM169.89 1.26541C169.972 0.957873 170.387 0.755421 170.819 0.813224C171.264 0.872741 171.711 0.935506 172.16 1.00158C172.591 1.06482 172.867 1.36453 172.779 1.67099C172.69 1.97746 172.269 2.17463 171.839 2.11139C171.398 2.04667 170.961 1.9852 170.525 1.92692C170.094 1.86912 169.809 1.57295 169.89 1.26541ZM144.669 1.6274C144.779 1.9302 144.525 2.23967 144.1 2.31862C143.668 2.39873 143.242 2.48219 142.821 2.56884C142.398 2.65565 141.957 2.4823 141.836 2.18166C141.714 1.88102 141.957 1.56692 142.379 1.48012C142.814 1.39074 143.253 1.30467 143.698 1.22208C144.123 1.14313 144.558 1.32459 144.669 1.6274ZM179.074 2.83396C179.204 2.53512 179.65 2.3681 180.07 2.46092C180.497 2.55558 180.927 2.65317 181.359 2.75373C181.777 2.85097 182.005 3.17092 181.868 3.46835C181.732 3.76578 181.282 3.92806 180.865 3.83082C180.44 3.732 180.018 3.63611 179.598 3.54312C179.178 3.45031 178.944 3.13281 179.074 2.83396ZM135.748 3.82186C135.937 4.10436 135.769 4.44248 135.372 4.57709C134.971 4.71333 134.576 4.85236 134.188 4.99396C133.796 5.13651 133.317 5.02626 133.117 4.74769C132.917 4.46912 133.072 4.12774 133.463 3.98518C133.865 3.83872 134.273 3.69495 134.688 3.5541C135.085 3.41949 135.559 3.53937 135.748 3.82186ZM187.961 5.09445C188.132 4.80604 188.598 4.67067 189.003 4.79208C189.419 4.91671 189.836 5.04403 190.255 5.17408C190.657 5.29912 190.842 5.63304 190.666 5.91989C190.491 6.20674 190.022 6.33791 189.619 6.21286C189.206 6.08471 188.795 5.95927 188.386 5.83651C187.981 5.71509 187.791 5.38286 187.961 5.09445ZM127.604 7.21688C127.871 7.46527 127.805 7.82092 127.457 8.01125C127.103 8.2045 126.758 8.39927 126.422 8.59521C126.082 8.79348 125.581 8.75795 125.302 8.51585C125.024 8.27376 125.074 7.91677 125.414 7.7185C125.763 7.5148 126.121 7.31243 126.489 7.11175C126.838 6.92143 127.337 6.96849 127.604 7.21688ZM196.532 7.92224C196.735 7.64478 197.215 7.53715 197.605 7.68185C198.004 7.83012 198.404 7.98082 198.806 8.13398C199.193 8.28163 199.339 8.62499 199.132 8.90089C198.925 9.17679 198.443 9.28076 198.055 9.1331C197.659 8.98184 197.263 8.83302 196.869 8.68662C196.479 8.54193 196.328 8.1997 196.532 7.92224ZM204.78 11.2139C205.01 10.9472 205.5 10.8637 205.874 11.0274C206.254 11.1937 206.636 11.3621 207.018 11.5326C207.39 11.6987 207.503 12.0484 207.27 12.3136C207.037 12.5788 206.546 12.6591 206.174 12.493C205.795 12.3242 205.418 12.1576 205.042 11.9932C204.667 11.8295 204.55 11.4806 204.78 11.2139ZM120.733 11.8169C121.081 12.0078 121.146 12.3635 120.878 12.6115C120.755 12.7252 120.636 12.8384 120.519 12.951C120.421 13.0753 120.319 13.1991 120.213 13.3223C119.984 13.5893 119.494 13.6734 119.119 13.5101C118.744 13.3469 118.626 12.9981 118.856 12.7311C118.96 12.6097 119.06 12.4882 119.155 12.3666L119.179 12.3363L119.208 12.3084C119.341 12.1794 119.477 12.05 119.617 11.9202C119.885 11.6723 120.385 11.626 120.733 11.8169ZM212.709 14.8825C212.961 14.6261 213.457 14.5636 213.817 14.7429C214.005 14.8368 214.194 14.9312 214.383 15.0261L214.393 15.0311C214.572 15.1243 214.758 15.2203 214.95 15.3191C215.306 15.5026 215.385 15.8568 215.128 16.1103C214.87 16.3638 214.373 16.4205 214.017 16.237C213.826 16.1386 213.641 16.0428 213.461 15.9497C213.275 15.8565 213.09 15.7638 212.905 15.6716C212.545 15.4923 212.457 15.139 212.709 14.8825ZM115.189 16.6833C115.481 16.9172 115.451 17.2753 115.123 17.4832C114.807 17.6833 114.483 17.8818 114.152 18.0787C113.815 18.2794 113.313 18.2474 113.032 18.0073C112.75 17.7671 112.795 17.4098 113.132 17.2092C113.451 17.0193 113.763 16.8282 114.066 16.6361C114.395 16.4282 114.897 16.4494 115.189 16.6833ZM220.671 18.8982C220.922 18.6409 221.417 18.5767 221.778 18.7548C222.154 18.9401 222.537 19.1281 222.925 19.3188C223.287 19.4961 223.379 19.8489 223.13 20.1067C222.881 20.3645 222.386 20.4297 222.024 20.2523C221.633 20.0611 221.25 19.8724 220.873 19.6866C220.512 19.5085 220.421 19.1555 220.671 18.8982ZM108.202 20.4814C108.438 20.7455 108.328 21.0956 107.957 21.2634C107.601 21.4246 107.242 21.5842 106.88 21.7421C106.505 21.9056 106.015 21.8219 105.786 21.5551C105.556 21.2883 105.674 20.9394 106.048 20.7759C106.403 20.621 106.755 20.4646 107.104 20.3068C107.475 20.1391 107.967 20.2172 108.202 20.4814ZM228.754 22.8151C228.997 22.5544 229.491 22.4834 229.857 22.6565C230.241 22.8383 230.628 23.021 231.018 23.2042C231.385 23.3766 231.486 23.728 231.244 23.9892C231.002 24.2504 230.508 24.3223 230.142 24.15C229.751 23.9661 229.362 23.7829 228.977 23.6005C228.611 23.4274 228.511 23.0758 228.754 22.8151ZM100.587 23.6168C100.787 23.8955 100.632 24.2368 100.24 24.379C99.8635 24.5159 99.4868 24.6509 99.1105 24.784C98.717 24.9232 98.2396 24.8088 98.0442 24.5285C97.8488 24.2483 98.0094 23.9082 98.4029 23.7691C98.7741 23.6377 99.1457 23.5046 99.5171 23.3696C99.9085 23.2274 100.388 23.3381 100.587 23.6168ZM92.6366 26.2973C92.8083 26.5854 92.6198 26.918 92.2154 27.0404C91.823 27.1591 91.4345 27.275 91.0505 27.3882C90.6445 27.5078 90.1793 27.3703 90.0114 27.0811C89.8435 26.792 90.0365 26.4606 90.4424 26.341C90.8218 26.2292 91.2057 26.1146 91.5934 25.9973C91.9978 25.875 92.4648 26.0093 92.6366 26.2973ZM236.941 26.6143C237.176 26.3498 237.667 26.2712 238.038 26.4385C238.431 26.6153 238.823 26.7918 239.217 26.9677C239.589 27.1341 239.701 27.4838 239.468 27.7488C239.234 28.0138 238.743 28.0938 238.371 27.9274C237.976 27.7508 237.581 27.5736 237.188 27.396C236.816 27.2287 236.706 26.8787 236.941 26.6143ZM84.4429 28.5834C84.5837 28.8798 84.3606 29.2014 83.9444 29.3017C83.7424 29.3504 83.5444 29.3975 83.3507 29.443L83.3349 29.4468L83.3349 29.4466C83.1307 29.4913 82.9274 29.5365 82.7248 29.5823C82.306 29.677 81.8588 29.5119 81.7259 29.2137C81.593 28.9154 81.8247 28.5969 82.2435 28.5022C82.4482 28.4559 82.6537 28.4102 82.8599 28.3651C83.0472 28.3211 83.2388 28.2754 83.4344 28.2283C83.8506 28.128 84.3021 28.287 84.4429 28.5834ZM245.26 30.2682C245.483 29.9988 245.971 29.9096 246.349 30.0689C246.75 30.2378 247.15 30.4052 247.549 30.571C247.928 30.7287 248.056 31.0757 247.835 31.3459C247.613 31.6162 247.126 31.7074 246.747 31.5496C246.346 31.3828 245.943 31.2143 245.539 31.0443C245.161 30.885 245.036 30.5376 245.26 30.2682ZM75.9903 30.7699C76.1697 31.0555 75.99 31.3907 75.589 31.5185C75.1998 31.6425 74.8139 31.7687 74.4314 31.8968C74.0339 32.0299 73.56 31.9083 73.3731 31.6251C73.1861 31.342 73.3569 31.0045 73.7544 30.8713C74.1459 30.7402 74.5409 30.6111 74.9393 30.4841C75.3403 30.3563 75.8109 30.4843 75.9903 30.7699ZM253.763 33.6988C253.967 33.4217 254.448 33.3148 254.837 33.4601C255.042 33.5366 255.246 33.6121 255.448 33.6868L255.461 33.6914L255.473 33.6963C255.66 33.7713 255.847 33.8484 256.034 33.9276C256.412 34.0873 256.537 34.4348 256.313 34.704C256.089 34.9731 255.601 35.0619 255.223 34.9023C255.049 34.8291 254.876 34.7578 254.704 34.6885C254.503 34.6144 254.301 34.5395 254.098 34.4637C253.709 34.3184 253.559 33.976 253.763 33.6988ZM67.9735 33.7058C68.2038 33.9723 68.0872 34.3213 67.713 34.4854C67.3495 34.6448 66.9897 34.8058 66.6337 34.9684C66.2639 35.1374 65.7718 35.0608 65.5347 34.7973C65.2975 34.5339 65.4051 34.1834 65.7749 34.0145C66.1391 33.8482 66.5071 33.6834 66.8791 33.5203C67.2532 33.3563 67.7432 33.4394 67.9735 33.7058ZM60.5558 37.3556C60.8317 37.5991 60.7782 37.9558 60.4363 38.1523C60.1039 38.3433 59.7758 38.5354 59.452 38.7284C59.115 38.9292 58.6133 38.8974 58.3314 38.6574C58.0495 38.4174 58.0941 38.0601 58.4311 37.8593C58.7621 37.662 59.0975 37.4657 59.4372 37.2704C59.7791 37.0739 60.28 37.112 60.5558 37.3556ZM261.07 37.364C261.385 37.1456 261.888 37.1502 262.195 37.3742C262.498 37.5959 262.796 37.8239 263.088 38.0579C263.379 38.292 263.349 38.6501 263.021 38.8578C262.692 39.0655 262.189 39.0441 261.898 38.8101C261.623 38.5895 261.342 38.3746 261.056 38.1652C260.749 37.9412 260.755 37.5825 261.07 37.364ZM53.8371 41.6371C54.1529 41.8546 54.1613 42.2133 53.8558 42.4382C53.5581 42.6575 53.2653 42.8769 52.9776 43.0963C52.6777 43.325 52.1744 43.3372 51.8533 43.1236C51.5323 42.91 51.5151 42.5514 51.815 42.3227C52.109 42.0986 52.4081 41.8744 52.7123 41.6504C53.0177 41.4255 53.5213 41.4195 53.8371 41.6371ZM266.291 42.475C266.695 42.3525 267.163 42.4866 267.335 42.7746C267.507 43.0622 267.667 43.355 267.815 43.6528C267.962 43.9477 267.746 44.2716 267.332 44.3763C266.918 44.481 266.463 44.3268 266.316 44.0319C266.179 43.7563 266.03 43.485 265.871 43.2182C265.699 42.9303 265.887 42.5976 266.291 42.475ZM47.903 46.473C48.2541 46.6612 48.3245 47.0164 48.0604 47.2664C47.9325 47.3875 47.8062 47.5082 47.6815 47.6286C47.5623 47.7437 47.4447 47.8594 47.3289 47.9758C47.0749 48.2311 46.5784 48.2914 46.22 48.1105C45.8615 47.9296 45.7768 47.576 46.0308 47.3206C46.1526 47.1983 46.2761 47.0766 46.4015 46.9556C46.5291 46.8325 46.6583 46.709 46.7891 46.5851C47.0532 46.3351 47.5519 46.2849 47.903 46.473ZM268.236 48.6221C268.675 48.6345 269.017 48.898 268.999 49.2107C268.982 49.5208 268.951 49.8342 268.907 50.1507C268.863 50.4621 268.473 50.6891 268.035 50.6577C267.598 50.6263 267.28 50.3485 267.324 50.0372C267.365 49.7433 267.394 49.4529 267.41 49.1658C267.427 48.8531 267.797 48.6097 268.236 48.6221ZM43.4041 51.7269C43.8077 51.8506 43.994 52.1839 43.8204 52.4714C43.6611 52.7349 43.5074 53.0005 43.359 53.2679C43.1975 53.5589 42.7354 53.7016 42.3268 53.5865C41.9183 53.4715 41.718 53.1423 41.8795 52.8513C42.0336 52.5737 42.1933 52.2976 42.359 52.0234C42.5327 51.736 43.0006 51.6032 43.4041 51.7269ZM266.446 54.8145C266.849 54.9393 267.033 55.2731 266.858 55.56C266.689 55.8366 266.51 56.1148 266.319 56.3947C266.128 56.6763 265.652 56.794 265.257 56.6575C264.861 56.5211 264.696 56.1822 264.888 55.9005C265.069 55.6344 265.239 55.3702 265.399 55.1082C265.574 54.8212 266.043 54.6897 266.446 54.8145ZM40.6249 57.5422C41.0526 57.6137 41.318 57.9186 41.2177 58.2232C41.1251 58.5046 41.0362 58.7869 40.9509 59.0702C40.8587 59.3761 40.4357 59.5709 40.0062 59.5052C39.5766 59.4396 39.3032 59.1383 39.3954 58.8323C39.4827 58.5424 39.5738 58.253 39.6688 57.9645C39.7691 57.6598 40.1972 57.4708 40.6249 57.5422ZM262.053 60.3064C262.402 60.4957 262.471 60.8511 262.205 61.1003C261.943 61.3454 261.674 61.5915 261.395 61.8387C261.12 62.0828 260.619 62.1219 260.277 61.926C259.934 61.7302 259.879 61.3736 260.154 61.1295C260.424 60.89 260.685 60.6517 260.938 60.4147C261.204 60.1656 261.703 60.117 262.053 60.3064ZM39.0573 63.5881C39.4931 63.6278 39.8013 63.9115 39.7456 64.2219C39.7198 64.3663 39.6944 64.5107 39.6696 64.6551C39.6393 64.8306 39.6118 65.0063 39.587 65.1822C39.5431 65.4935 39.1532 65.7206 38.716 65.6893C38.2789 65.658 37.9601 65.3803 38.004 65.0689C38.03 64.8848 38.0588 64.7008 38.0905 64.5171C38.1156 64.3709 38.1413 64.2247 38.1675 64.0785C38.2231 63.768 38.6215 63.5485 39.0573 63.5881ZM256.196 65.0841C256.501 65.3091 256.493 65.6678 256.177 65.8853C255.871 66.0961 255.559 66.3076 255.24 66.5197C254.919 66.7333 254.415 66.7211 254.115 66.4925C253.816 66.2638 253.833 65.9053 254.154 65.6917C254.466 65.4839 254.772 65.2769 255.071 65.0707C255.387 64.8531 255.891 64.8592 256.196 65.0841ZM249.51 69.2881C249.782 69.5342 249.722 69.8904 249.376 70.0837C249.041 70.2714 248.7 70.4596 248.354 70.6482C248.005 70.8385 247.506 70.7914 247.239 70.5429C246.972 70.2945 247.038 69.9389 247.387 69.7486C247.727 69.5627 248.063 69.3773 248.394 69.1925C248.739 68.9992 249.239 69.042 249.51 69.2881ZM38.9981 71.0557C39.4299 70.9983 39.8453 71.2013 39.9258 71.5089C40.0164 71.8554 40.1195 72.1997 40.2353 72.5413C40.3383 72.8455 40.0756 73.1516 39.6485 73.225C39.2215 73.2984 38.7917 73.1113 38.6887 72.8071C38.5663 72.4459 38.4574 72.0822 38.3618 71.7165C38.2813 71.4088 38.5662 71.113 38.9981 71.0557ZM242.322 73.049C242.567 73.3087 242.47 73.6608 242.106 73.8354C241.925 73.9221 241.742 74.009 241.559 74.096L241.556 74.0972C241.373 74.1833 241.185 74.2707 240.991 74.3595C240.622 74.5288 240.13 74.4528 239.892 74.1897C239.654 73.9265 239.761 73.5759 240.13 73.4066C240.319 73.3201 240.502 73.2351 240.68 73.1515C240.749 73.1187 240.818 73.0859 240.887 73.0531C240.998 73.0004 241.108 72.9476 241.218 72.8949C241.583 72.7203 242.077 72.7893 242.322 73.049ZM234.289 76.4757C234.491 76.7533 234.34 77.0954 233.95 77.2398C233.557 77.3852 233.157 77.5314 232.748 77.6782C232.356 77.8193 231.878 77.7072 231.68 77.4278C231.482 77.1485 231.639 76.8077 232.031 76.6667C232.434 76.5219 232.829 76.3777 233.216 76.2344C233.606 76.09 234.086 76.198 234.289 76.4757ZM42.6239 78.1531C42.9897 77.9799 43.4835 78.0508 43.7267 78.3114C43.8625 78.4569 44.0017 78.6012 44.1443 78.7441C44.2739 78.874 44.4038 79.0032 44.5339 79.1319C44.7907 79.3857 44.71 79.7399 44.3535 79.9228C43.9971 80.1057 43.4999 80.0482 43.2431 79.7943C43.111 79.6637 42.9791 79.5325 42.8475 79.4006C42.6952 79.248 42.5467 79.094 42.4017 78.9386C42.1585 78.678 42.258 78.3263 42.6239 78.1531ZM225.823 79.3599C225.995 79.648 225.806 79.9806 225.401 80.1028C224.991 80.2267 224.576 80.3502 224.156 80.473C223.75 80.592 223.285 80.4539 223.118 80.1645C222.951 79.8751 223.145 79.544 223.551 79.4249C223.965 79.3037 224.375 79.1818 224.78 79.0594C225.185 78.9373 225.652 79.0718 225.823 79.3599ZM217.071 81.7729C217.21 82.0695 216.986 82.3908 216.57 82.4903C216.145 82.5918 215.718 82.6921 215.287 82.7909C214.869 82.8871 214.421 82.7236 214.286 82.4258C214.151 82.128 214.381 81.8087 214.799 81.7125C215.223 81.615 215.645 81.5161 216.063 81.416C216.48 81.3164 216.931 81.4762 217.071 81.7729ZM208.075 83.6798C208.179 83.9838 207.917 84.2902 207.49 84.3641C207.053 84.4398 206.614 84.5135 206.174 84.5854C205.746 84.6552 205.319 84.4646 205.221 84.1595C205.123 83.8545 205.391 83.5506 205.819 83.4808C206.252 83.4101 206.684 83.3374 207.115 83.263C207.541 83.1891 207.972 83.3757 208.075 83.6798ZM48.2848 83.4977C48.619 83.2946 49.1211 83.3229 49.4063 83.5609C49.6899 83.7977 49.9746 84.0319 50.2604 84.2636C50.5503 84.4986 50.5178 84.8567 50.1878 85.0632C49.8577 85.2697 49.3551 85.2466 49.0652 85.0115C48.7743 84.7757 48.4846 84.5374 48.196 84.2965C47.9109 84.0584 47.9506 83.7008 48.2848 83.4977ZM198.875 84.9963C198.936 85.3063 198.632 85.5925 198.197 85.6356C197.973 85.6577 197.75 85.6792 197.526 85.7001C197.285 85.7226 197.045 85.7455 196.805 85.7689C196.369 85.8113 195.968 85.5944 195.909 85.2843C195.849 84.9743 196.154 84.6886 196.589 84.6462C196.832 84.6224 197.076 84.5992 197.319 84.5765C197.539 84.556 197.758 84.5349 197.978 84.5132C198.413 84.4701 198.815 84.6864 198.875 84.9963ZM188.823 86.1684C188.916 86.4741 188.645 86.776 188.215 86.8428C187.742 86.9165 187.27 86.9926 186.799 87.0713C186.371 87.1427 185.943 86.9537 185.843 86.649C185.743 86.3444 186.008 86.0395 186.436 85.968C186.915 85.888 187.395 85.8106 187.876 85.7357C188.305 85.669 188.729 85.8626 188.823 86.1684ZM178.932 88.0686C179.076 88.364 178.858 88.6871 178.443 88.7903C177.987 88.9038 177.533 89.0204 177.08 89.1402C176.669 89.2493 176.211 89.1 176.058 88.8067C175.904 88.5134 176.114 88.1872 176.526 88.0781C176.988 87.9556 177.452 87.8364 177.918 87.7205C178.333 87.6173 178.787 87.7731 178.932 88.0686ZM54.601 88.3306C54.9029 88.1033 55.4064 88.0934 55.7255 88.3084C56.0449 88.5236 56.3653 88.7361 56.6868 88.9458C57.0108 89.1572 57.0329 89.5156 56.7361 89.7463C56.4394 89.9771 55.9362 89.9928 55.6123 89.7815C55.2844 89.5676 54.9577 89.351 54.6321 89.1316C54.313 88.9165 54.299 88.5579 54.601 88.3306ZM169.494 90.9006C169.701 91.1766 169.555 91.5199 169.168 91.6675C168.956 91.7484 168.744 91.8302 168.533 91.913C168.341 91.9883 168.148 92.0636 167.955 92.1387C167.569 92.2885 167.086 92.1872 166.876 91.9125C166.665 91.6377 166.808 91.2936 167.193 91.1438C167.285 91.108 167.377 91.0722 167.469 91.0364C167.568 90.9978 167.667 90.9592 167.765 90.9205C167.85 90.8872 167.935 90.854 168.02 90.821C168.152 90.7697 168.285 90.7188 168.417 90.6683C168.805 90.5207 169.287 90.6247 169.494 90.9006ZM61.6309 92.633C61.8933 92.3821 62.3917 92.3302 62.744 92.5171C63.097 92.7043 63.4509 92.8887 63.8059 93.0701C64.1628 93.2526 64.2444 93.6066 63.9882 93.8608C63.732 94.115 63.235 94.1732 62.8781 93.9907C62.5156 93.8054 62.1541 93.6171 61.7937 93.4259C61.4414 93.239 61.3685 92.884 61.6309 92.633ZM161.212 93.9751C161.402 94.2574 161.234 94.5957 160.838 94.7307C160.439 94.8668 160.037 95.0021 159.633 95.1365C159.235 95.2691 158.762 95.1467 158.576 94.8633C158.39 94.5798 158.561 94.2426 158.959 94.11C159.359 93.977 159.756 93.8431 160.151 93.7085C160.548 93.5734 161.023 93.6928 161.212 93.9751ZM69.3417 96.3C69.558 96.0276 70.0433 95.9317 70.4257 96.0857C70.808 96.2397 71.1912 96.3908 71.5753 96.5389C71.9616 96.688 72.1051 97.0318 71.8959 97.307C71.6867 97.5822 71.2039 97.6844 70.8176 97.5354C70.425 97.3839 70.0333 97.2295 69.6425 97.0721C69.2601 96.918 69.1255 96.5723 69.3417 96.3ZM152.741 96.6735C152.905 96.9637 152.708 97.2939 152.301 97.411C151.888 97.5297 151.474 97.6473 151.058 97.7639C150.649 97.8784 150.187 97.7351 150.027 97.4439C149.866 97.1527 150.067 96.8238 150.476 96.7093C150.887 96.594 151.297 96.4777 151.705 96.3603C152.113 96.2431 152.576 96.3834 152.741 96.6735ZM144.042 98.9841C144.18 99.2813 143.953 99.6016 143.536 99.6995C143.115 99.7981 142.694 99.8954 142.271 99.9913C141.852 100.086 141.405 99.9216 141.271 99.6235C141.138 99.3253 141.369 99.0066 141.788 98.9116C142.206 98.8168 142.622 98.7206 143.038 98.6231C143.455 98.5253 143.905 98.6868 144.042 98.9841ZM77.6445 99.2409C77.8099 98.951 78.274 98.8116 78.681 98.9294C79.0868 99.0469 79.4933 99.1615 79.9005 99.2733C80.3105 99.3858 80.5148 99.7137 80.3568 100.006C80.1989 100.298 79.7385 100.443 79.3285 100.331C78.9123 100.216 78.4967 100.099 78.0818 99.9792C77.6748 99.8613 77.479 99.5308 77.6445 99.2409ZM135.152 100.869C135.26 101.172 135.002 101.48 134.576 101.557C134.145 101.634 133.713 101.71 133.281 101.784C132.854 101.858 132.424 101.67 132.321 101.366C132.218 101.062 132.481 100.756 132.908 100.683C133.335 100.609 133.761 100.534 134.186 100.458C134.612 100.381 135.045 100.565 135.152 100.869ZM86.4067 101.402C86.5195 101.1 86.9552 100.92 87.3798 101C87.8025 101.08 88.2257 101.157 88.6494 101.232C89.0759 101.307 89.3363 101.614 89.2309 101.918C89.1256 102.221 88.6944 102.407 88.2679 102.332C87.8352 102.256 87.403 102.177 86.9712 102.095C86.5466 102.015 86.2939 101.704 86.4067 101.402ZM126.089 102.282C126.163 102.59 125.872 102.883 125.439 102.936C125 102.989 124.561 103.04 124.121 103.09C123.687 103.139 123.279 102.928 123.211 102.619C123.142 102.31 123.438 102.02 123.872 101.971C124.305 101.922 124.739 101.871 125.171 101.818C125.604 101.766 126.015 101.973 126.089 102.282ZM95.4769 102.776C95.5383 102.466 95.9407 102.25 96.3757 102.294C96.8088 102.337 97.2421 102.378 97.6756 102.417C98.1115 102.455 98.4209 102.738 98.3667 103.049C98.3124 103.359 97.915 103.58 97.479 103.541C97.037 103.502 96.5951 103.46 96.1534 103.416C95.7184 103.372 95.4155 103.085 95.4769 102.776ZM116.894 103.162C116.93 103.474 116.604 103.748 116.166 103.774C115.722 103.799 115.278 103.823 114.833 103.845C114.395 103.867 114.015 103.631 113.985 103.319C113.955 103.006 114.286 102.736 114.724 102.715C115.162 102.693 115.599 102.67 116.036 102.644C116.474 102.619 116.858 102.851 116.894 103.162ZM104.71 103.394C104.724 103.082 105.09 102.836 105.53 102.845C105.967 102.855 106.405 102.862 106.843 102.867C107.282 102.872 107.633 103.129 107.626 103.442C107.619 103.755 107.257 104.005 106.818 104C106.372 103.995 105.927 103.988 105.481 103.978C105.042 103.969 104.697 103.707 104.71 103.394Z" fill="#CDCDCD"/>
<path d="M256.814 78.0291V52.8871H263.17V78.0291H256.814ZM247.421 68.6364V62.2798H272.563V68.6364H247.421Z" fill="#FCB040"/>
<path d="M25.9659 91.7955C21.9508 91.7955 18.3712 91.0568 15.2273 89.5795C12.1023 88.1023 9.62121 86.0663 7.78409 83.4716C5.94697 80.8769 4.99053 77.9034 4.91477 74.5511H16.8466C16.9792 76.8049 17.9261 78.6326 19.6875 80.0341C21.4489 81.4356 23.5417 82.1364 25.9659 82.1364C27.8977 82.1364 29.6023 81.7102 31.0795 80.858C32.5758 79.9867 33.7405 78.7841 34.5739 77.25C35.4261 75.697 35.8523 73.9167 35.8523 71.9091C35.8523 69.8636 35.4167 68.0644 34.5455 66.5114C33.6932 64.9583 32.5095 63.7462 30.9943 62.875C29.4792 62.0038 27.7462 61.5587 25.7955 61.5398C24.0909 61.5398 22.4337 61.8902 20.8239 62.5909C19.233 63.2917 17.9924 64.2481 17.1023 65.4602L6.16477 63.5L8.92045 32.8182H44.4886V42.875H19.0625L17.5568 57.4489H17.8977C18.9205 56.0095 20.464 54.8163 22.5284 53.8693C24.5928 52.9223 26.9034 52.4489 29.4602 52.4489C32.964 52.4489 36.089 53.2727 38.8352 54.9205C41.5814 56.5682 43.75 58.8314 45.3409 61.7102C46.9318 64.5701 47.7178 67.8655 47.6989 71.5966C47.7178 75.517 46.8087 79.0019 44.9716 82.0511C43.1534 85.0814 40.6061 87.4678 37.3295 89.2102C34.072 90.9337 30.2841 91.7955 25.9659 91.7955ZM79.0909 92.2784C74.2045 92.2595 70 91.0568 66.4773 88.6705C62.9735 86.2841 60.2746 82.8277 58.3807 78.3011C56.5057 73.7746 55.5777 68.3295 55.5966 61.9659C55.5966 55.6212 56.5341 50.214 58.4091 45.7443C60.303 41.2746 63.0019 37.875 66.5057 35.5455C70.0284 33.197 74.2235 32.0227 79.0909 32.0227C83.9583 32.0227 88.1439 33.197 91.6477 35.5455C95.1705 37.8939 97.8788 41.303 99.7727 45.7727C101.667 50.2235 102.604 55.6212 102.585 61.9659C102.585 68.3485 101.638 73.803 99.7443 78.3295C97.8693 82.8561 95.1799 86.3125 91.6761 88.6989C88.1723 91.0852 83.9773 92.2784 79.0909 92.2784ZM79.0909 82.0795C82.4242 82.0795 85.0852 80.4034 87.0739 77.0511C89.0625 73.6989 90.0473 68.6705 90.0284 61.9659C90.0284 57.553 89.5739 53.8788 88.6648 50.9432C87.7746 48.0076 86.5057 45.8011 84.858 44.3239C83.2292 42.8466 81.3068 42.108 79.0909 42.108C75.7765 42.108 73.125 43.7652 71.1364 47.0795C69.1477 50.3939 68.1439 55.3561 68.125 61.9659C68.125 66.4356 68.5701 70.1667 69.4602 73.1591C70.3693 76.1326 71.6477 78.3674 73.2955 79.8636C74.9432 81.3409 76.875 82.0795 79.0909 82.0795ZM134.169 92.2784C129.283 92.2595 125.078 91.0568 121.555 88.6705C118.052 86.2841 115.353 82.8277 113.459 78.3011C111.584 73.7746 110.656 68.3295 110.675 61.9659C110.675 55.6212 111.612 50.214 113.487 45.7443C115.381 41.2746 118.08 37.875 121.584 35.5455C125.107 33.197 129.302 32.0227 134.169 32.0227C139.036 32.0227 143.222 33.197 146.726 35.5455C150.249 37.8939 152.957 41.303 154.851 45.7727C156.745 50.2235 157.682 55.6212 157.663 61.9659C157.663 68.3485 156.716 73.803 154.822 78.3295C152.947 82.8561 150.258 86.3125 146.754 88.6989C143.25 91.0852 139.055 92.2784 134.169 92.2784ZM134.169 82.0795C137.502 82.0795 140.163 80.4034 142.152 77.0511C144.141 73.6989 145.125 68.6705 145.107 61.9659C145.107 57.553 144.652 53.8788 143.743 50.9432C142.853 48.0076 141.584 45.8011 139.936 44.3239C138.307 42.8466 136.385 42.108 134.169 42.108C130.855 42.108 128.203 43.7652 126.214 47.0795C124.226 50.3939 123.222 55.3561 123.203 61.9659C123.203 66.4356 123.648 70.1667 124.538 73.1591C125.447 76.1326 126.726 78.3674 128.374 79.8636C130.021 81.3409 131.953 82.0795 134.169 82.0795ZM166.776 32.8182H181.946L197.969 71.9091H198.651L214.673 32.8182H229.844V91H217.912V53.1307H217.429L202.372 90.7159H194.247L179.19 52.9886H178.707V91H166.776V32.8182Z" fill="#FCB040"/>
<circle cx="1.32173" cy="1.32173" r="1.32173" transform="matrix(-1 0 0 1 16.9922 29.5508)" fill="#387ED1"/>
<circle cx="1.32173" cy="1.32173" r="1.32173" transform="matrix(-1 0 0 1 12.2734 22)" fill="#387ED1"/>
<circle cx="1.32173" cy="1.32173" r="1.32173" transform="matrix(-1 0 0 1 21.5234 36.7266)" fill="#387ED1"/>
<circle cx="1.32173" cy="1.32173" r="1.32173" transform="matrix(-1 0 0 1 2.64062 36.7266)" fill="#387ED1"/>
<circle cx="1.32173" cy="1.32173" r="1.32173" transform="matrix(-1 0 0 1 7.55078 29.5508)" fill="#387ED1"/>
<circle cx="1.32173" cy="1.32173" r="1.32173" transform="matrix(-1 0 0 1 12.082 36.7266)" fill="#387ED1"/>
<circle cx="1.32173" cy="1.32173" r="1.32173" transform="matrix(-1 0 0 1 26.4336 29.5508)" fill="#387ED1"/>
<circle cx="1.32173" cy="1.32173" r="1.32173" transform="matrix(-1 0 0 1 21.7148 22)" fill="#387ED1"/>
<circle cx="24.9233" cy="30.8725" r="1.32173" fill="#387ED1"/>
<circle cx="29.642" cy="23.3217" r="1.32173" fill="#387ED1"/>
<circle cx="20.392" cy="38.0483" r="1.32173" fill="#387ED1"/>
<circle cx="39.2748" cy="38.0483" r="1.32173" fill="#387ED1"/>
<circle cx="34.3647" cy="30.8725" r="1.32173" fill="#387ED1"/>
<circle cx="39.0834" cy="23.3217" r="1.32173" fill="#387ED1"/>
<circle cx="29.8334" cy="38.0483" r="1.32173" fill="#387ED1"/>
<circle cx="15.4819" cy="30.8725" r="1.32173" fill="#387ED1"/>
<circle cx="20.2006" cy="23.3217" r="1.32173" fill="#387ED1"/>
</svg>
