<svg width="135" height="104" viewBox="0 0 135 104" fill="none" xmlns="http://www.w3.org/2000/svg">
<path d="M16.9475 20.5611L16.1023 23.4446H-0.00567627L0.839494 20.5611H16.9475ZM9.39063 40L0.292619 28.8636L0.242903 26.7756H4.76705C5.94366 26.7756 6.94627 26.6098 7.77486 26.2784C8.60346 25.9387 9.23734 25.4332 9.6765 24.7621C10.1157 24.0826 10.3352 23.2292 10.3352 22.2017C10.3352 20.6854 9.8795 19.4963 8.96805 18.6346C8.05659 17.7646 6.65626 17.3295 4.76705 17.3295H-0.00567627L0.839494 14.5455H4.76705C6.78883 14.5455 8.44603 14.881 9.73864 15.5522C11.0395 16.2151 12.0007 17.1265 12.6222 18.2866C13.2519 19.4383 13.5668 20.7434 13.5668 22.2017C13.5668 23.5192 13.2768 24.7331 12.6967 25.8434C12.125 26.9454 11.2053 27.832 9.93751 28.5032C8.67804 29.1744 7.01255 29.5099 4.94106 29.5099H4.86648L13.2685 39.8011V40H9.39063ZM16.9475 14.5455L16.1023 17.429L3.42472 17.3295L4.26989 14.5455H16.9475Z" fill="#FCB040"/>
<path fill-rule="evenodd" clip-rule="evenodd" d="M72.0893 0.547286C72.1002 0.234689 72.3711 -0.0101928 72.6943 0.000326611C73.0299 0.0112478 73.3685 0.0279822 73.7102 0.0507123C74.0329 0.0721755 74.2765 0.34253 74.2543 0.654566C74.2321 0.966603 73.9525 1.20216 73.6299 1.1807C73.3017 1.15887 72.9768 1.14281 72.6549 1.13234C72.3317 1.12182 72.0785 0.859882 72.0893 0.547286ZM67.3188 0.904048C67.381 1.21099 67.1741 1.50855 66.8567 1.56866C66.5365 1.6293 66.2204 1.69562 65.9083 1.76736C65.5936 1.83967 65.2779 1.65161 65.2031 1.34731C65.1284 1.04302 65.3228 0.737709 65.6375 0.665393C65.9647 0.59019 66.2961 0.520675 66.6316 0.457124C66.949 0.397011 67.2567 0.597105 67.3188 0.904048ZM78.9788 1.4224C79.0608 1.11984 79.3808 0.938846 79.6937 1.01813C80.0131 1.09907 80.3346 1.18508 80.6582 1.27628C80.9687 1.36378 81.1471 1.67814 81.0566 1.97842C80.9661 2.27871 80.641 2.45121 80.3305 2.36371C80.017 2.27536 79.7058 2.1921 79.3968 2.11379C79.0839 2.0345 78.8968 1.72496 78.9788 1.4224ZM60.7168 2.95271C60.8648 3.2308 60.7517 3.57229 60.4641 3.71543C60.1739 3.85989 59.8888 4.00899 59.6088 4.16237C59.3274 4.31652 58.97 4.22086 58.8106 3.94871C58.6512 3.67656 58.7502 3.33097 59.0316 3.17682C59.325 3.01608 59.6239 2.8598 59.9281 2.70836C60.2157 2.56522 60.5688 2.67461 60.7168 2.95271ZM85.551 3.61069C85.6852 3.32609 86.0325 3.20056 86.3268 3.3303C86.6248 3.46169 86.9243 3.59735 87.2254 3.73736C87.5169 3.87291 87.6395 4.21129 87.4994 4.49317C87.3592 4.77505 87.0093 4.89367 86.7179 4.75813C86.4239 4.62144 86.1316 4.48906 85.841 4.36091C85.5467 4.23117 85.4169 3.89528 85.551 3.61069ZM91.6906 6.73497C91.8615 6.46945 92.2226 6.3882 92.4972 6.55351C92.7828 6.72546 93.0696 6.90123 93.3576 7.08087C93.6294 7.25039 93.7076 7.6009 93.5323 7.86375C93.357 8.1266 92.9946 8.20225 92.7228 8.03273C92.44 7.85632 92.1584 7.68378 91.8782 7.51505C91.6036 7.34975 91.5196 7.0005 91.6906 6.73497ZM54.9526 6.68641C55.1728 6.91554 55.1592 7.27387 54.9223 7.48678C54.682 7.70272 54.4483 7.9211 54.2213 8.1414C53.993 8.36295 53.6222 8.36358 53.3931 8.14281C53.1641 7.92203 53.1634 7.56345 53.3917 7.3419C53.6292 7.11142 53.8736 6.88296 54.125 6.65706C54.3619 6.44415 54.7325 6.45729 54.9526 6.68641ZM97.4371 10.5378C97.6343 10.2899 98.002 10.2435 98.2583 10.4342C98.5202 10.629 98.7829 10.8269 99.0465 11.028C99.3004 11.2217 99.3439 11.5778 99.1436 11.8234C98.9434 12.069 98.5751 12.111 98.3212 11.9173C98.0613 11.7191 97.8023 11.524 97.5443 11.332C97.2879 11.1413 97.2399 10.7857 97.4371 10.5378ZM50.4334 11.7845C50.7108 11.9453 50.8008 12.2932 50.6344 12.5614C50.5572 12.6861 50.482 12.8102 50.4091 12.9337C50.3457 13.0741 50.2794 13.2139 50.2104 13.3532C50.0706 13.6352 49.7208 13.7543 49.4292 13.6192C49.1375 13.484 49.0144 13.1458 49.1542 12.8637C49.2218 12.7273 49.2863 12.5907 49.3477 12.454L49.3603 12.4261L49.3758 12.3996C49.458 12.2599 49.5427 12.1197 49.63 11.9789C49.7963 11.7107 50.156 11.6236 50.4334 11.7845ZM102.804 14.8152C103.021 14.5827 103.391 14.5638 103.631 14.773C103.758 14.883 103.884 14.9936 104.011 15.105L104.018 15.111C104.144 15.2256 104.276 15.3446 104.412 15.4676C104.649 15.6809 104.662 16.0392 104.441 16.268C104.221 16.4969 103.85 16.5095 103.614 16.2963C103.477 16.1735 103.346 16.0547 103.22 15.9402C103.096 15.8311 102.972 15.7227 102.848 15.615C102.608 15.4058 102.588 15.0477 102.804 14.8152ZM46.6965 17.3076C46.933 17.5209 46.946 17.8792 46.7254 18.108C46.4999 18.3418 46.2687 18.5734 46.0325 18.8027C45.8042 19.0243 45.4334 19.0249 45.2043 18.8041C44.9752 18.5833 44.9746 18.2248 45.2029 18.0032C45.4304 17.7824 45.6525 17.5598 45.8688 17.3355C46.0894 17.1068 46.46 17.0942 46.6965 17.3076ZM108.413 19.7436C108.627 19.5093 108.997 19.4872 109.239 19.6944C109.506 19.9224 109.777 20.1537 110.053 20.388C110.296 20.5943 110.32 20.9522 110.107 21.1872C109.894 21.4223 109.524 21.4456 109.281 21.2393C109.004 21.0041 108.731 20.7719 108.463 20.543C108.221 20.3358 108.198 19.9779 108.413 19.7436ZM41.6293 21.7536C41.8226 22.0044 41.769 22.3592 41.5097 22.5461C41.2448 22.737 40.9783 22.9252 40.7106 23.1107C40.4477 23.2929 40.0819 23.2344 39.8935 22.9802C39.7052 22.7259 39.7656 22.3721 40.0285 22.19C40.2904 22.0085 40.551 21.8244 40.8099 21.6379C41.0692 21.451 41.4361 21.5028 41.6293 21.7536ZM114.172 24.5621C114.38 24.3224 114.75 24.291 114.997 24.492C115.274 24.716 115.552 24.9404 115.831 25.1648C116.08 25.3647 116.114 25.7218 115.907 25.9623C115.7 26.2028 115.331 26.2358 115.082 26.0358C114.802 25.8104 114.523 25.585 114.245 25.3599C113.997 25.159 113.965 24.8018 114.172 24.5621ZM35.9409 25.4396C36.1034 25.71 36.0085 26.0566 35.7288 26.2138C35.4405 26.3758 35.1543 26.5339 34.8711 26.6878C34.5892 26.841 34.2322 26.7442 34.0738 26.4715C33.9153 26.1988 34.0154 25.8536 34.2974 25.7003C34.5758 25.549 34.857 25.3937 35.1404 25.2344C35.42 25.0773 35.7785 25.1692 35.9409 25.4396ZM29.878 28.5189C30.0081 28.8052 29.8736 29.1394 29.5775 29.2652C29.4226 29.3311 29.2716 29.3942 29.1249 29.4545L29.1181 29.4574L29.1112 29.46C28.9581 29.5186 28.8059 29.5781 28.6544 29.6387C28.3555 29.7582 28.013 29.6207 27.8895 29.3317C27.7659 29.0426 27.9081 28.7114 28.207 28.5919C28.3616 28.5301 28.5171 28.4693 28.6733 28.4095C28.8135 28.3518 28.9579 28.2914 29.1063 28.2283C29.4023 28.1024 29.7479 28.2325 29.878 28.5189ZM120.076 29.216C120.274 28.9693 120.642 28.9252 120.897 29.1175C121.184 29.3334 121.47 29.5474 121.755 29.7593C122.011 29.9499 122.059 30.3055 121.862 30.5534C121.665 30.8014 121.297 30.8479 121.041 30.6573C120.754 30.4438 120.466 30.2282 120.177 30.0108C119.922 29.8186 119.877 29.4627 120.076 29.216ZM23.6031 31.4927C23.7765 31.7567 23.6957 32.1067 23.4227 32.2743C23.1447 32.4451 22.8699 32.6191 22.5982 32.7961C22.33 32.9709 21.9661 32.9024 21.7853 32.643C21.6046 32.3836 21.6755 32.0317 21.9437 31.8569C22.224 31.6742 22.5077 31.4945 22.7948 31.3182C23.0679 31.1505 23.4297 31.2286 23.6031 31.4927ZM126.192 33.6062C126.373 33.3473 126.737 33.2797 127.005 33.4553C127.154 33.5532 127.303 33.6497 127.45 33.7448L127.46 33.751L127.469 33.7576C127.604 33.8523 127.739 33.9503 127.874 34.0517C128.13 34.2431 128.177 34.5989 127.979 34.8462C127.781 35.0935 127.413 35.1387 127.157 34.9472C127.034 34.8553 126.912 34.7664 126.79 34.6806C126.643 34.586 126.496 34.49 126.348 34.3927C126.08 34.2172 126.01 33.865 126.192 33.6062ZM17.9977 35.5502C18.2168 35.7803 18.2016 36.1385 17.9637 36.3504C17.7208 36.5669 17.4812 36.7854 17.2451 37.0058C17.0123 37.223 16.6416 37.2167 16.417 36.9916C16.1924 36.7665 16.199 36.408 16.4317 36.1908C16.6743 35.9644 16.9205 35.7399 17.1702 35.5174C17.4081 35.3055 17.7785 35.3202 17.9977 35.5502ZM131.195 38.2179C131.464 38.0445 131.828 38.1149 132.007 38.3752C132.193 38.645 132.374 38.9226 132.549 39.2078C132.714 39.4767 132.622 39.8242 132.344 39.9838C132.066 40.1434 131.706 40.0547 131.541 39.7857C131.377 39.5177 131.207 39.2569 131.032 39.0032C130.853 38.7429 130.926 38.3913 131.195 38.2179ZM13.1669 40.4549C13.4196 40.6502 13.4607 41.0065 13.2588 41.2509C13.0517 41.5015 12.8484 41.7527 12.6488 42.0043C12.452 42.2525 12.0844 42.2994 11.8278 42.1091C11.5711 41.9188 11.5226 41.5633 11.7195 41.3151C11.9237 41.0575 12.1318 40.8003 12.3439 40.5437C12.5458 40.2994 12.9143 40.2596 13.1669 40.4549ZM134.084 44.2499C134.4 44.1835 134.712 44.3775 134.781 44.6831C134.852 44.9999 134.915 45.3218 134.97 45.6487C135.021 45.9575 134.804 46.2482 134.485 46.2981C134.165 46.3479 133.865 46.138 133.813 45.8292C133.762 45.5225 133.703 45.2206 133.636 44.9235C133.568 44.6178 133.768 44.3162 134.084 44.2499ZM9.11232 45.9799C9.38984 46.1405 9.4802 46.4883 9.31413 46.7567C9.22912 46.8941 9.14527 47.0311 9.06258 47.1676C8.98731 47.2919 8.91322 47.4167 8.84029 47.542C8.68163 47.8145 8.32455 47.9111 8.04272 47.7576C7.76089 47.6042 7.66105 47.2589 7.8197 46.9863C7.89588 46.8555 7.97329 46.7251 8.05197 46.5952C8.1365 46.4556 8.22222 46.3156 8.30912 46.1751C8.47519 45.9067 8.83479 45.8193 9.11232 45.9799ZM134.499 50.8816C134.819 50.9268 135.041 51.2144 134.994 51.5239C134.945 51.844 134.889 52.1672 134.824 52.4935C134.762 52.8005 134.455 53.0014 134.137 52.942C133.82 52.8826 133.612 52.5856 133.674 52.2785C133.736 51.9692 133.789 51.663 133.835 51.3601C133.882 51.0506 134.179 50.8364 134.499 50.8816ZM6.30195 51.5611C6.60788 51.6626 6.77084 51.9846 6.66593 52.2805C6.56898 52.5539 6.47569 52.8288 6.38587 53.105C6.28885 53.4034 5.96009 53.5692 5.65157 53.4754C5.34305 53.3816 5.17159 53.0636 5.26861 52.7652C5.36135 52.48 5.45777 52.196 5.55806 51.9131C5.66297 51.6172 5.99602 51.4596 6.30195 51.5611ZM132.668 57.2976C132.963 57.4267 133.093 57.7624 132.96 58.0472C132.823 58.3395 132.679 58.6335 132.528 58.9293C132.385 59.2098 132.034 59.3249 131.744 59.1865C131.454 59.0481 131.334 58.7085 131.478 58.4281C131.623 58.1432 131.761 57.8604 131.893 57.5796C132.026 57.2947 132.374 57.1684 132.668 57.2976ZM4.63981 57.5196C4.95794 57.5759 5.16864 57.871 5.11042 58.1786C5.05627 58.4648 5.00449 58.7517 4.95489 59.0392C4.90167 59.3477 4.59992 59.5561 4.28091 59.5046C3.9619 59.4531 3.74644 59.1613 3.79965 58.8528C3.85022 58.5597 3.90306 58.267 3.95835 57.9747C4.01658 57.6671 4.32167 57.4633 4.63981 57.5196ZM129.282 63.1093C129.545 63.2915 129.606 63.6452 129.417 63.8995C129.226 64.1579 129.029 64.4174 128.827 64.6779C128.633 64.928 128.266 64.9785 128.007 64.7907C127.748 64.603 127.696 64.2479 127.89 63.9978C128.087 63.744 128.279 63.4914 128.465 63.24C128.653 62.9857 129.019 62.9272 129.282 63.1093ZM3.73581 63.6329C4.05766 63.6636 4.29282 63.9409 4.26104 64.2521C4.24617 64.3978 4.23158 64.5435 4.21724 64.6893C4.19973 64.8672 4.1838 65.0452 4.16947 65.2234C4.14438 65.5352 3.86265 65.7683 3.5402 65.7441C3.21776 65.7198 2.97671 65.4473 3.0018 65.1355C3.01666 64.9508 3.03317 64.7663 3.05131 64.582C3.06577 64.435 3.0805 64.2879 3.09551 64.1409C3.12729 63.8296 3.41396 63.6022 3.73581 63.6329ZM124.932 68.2905C125.167 68.5054 125.177 68.8639 124.955 69.0911C124.73 69.3212 124.501 69.5519 124.267 69.7834C124.041 70.0072 123.67 70.0115 123.439 69.793C123.208 69.5745 123.203 69.2159 123.429 68.9921C123.659 68.7649 123.884 68.5384 124.104 68.3128C124.327 68.0855 124.697 68.0756 124.932 68.2905ZM3.7189 71.1523C4.03866 71.1054 4.33721 71.318 4.38574 71.6272C4.44101 71.9794 4.50389 72.3301 4.57456 72.6789C4.63675 72.9858 4.42988 73.2834 4.1125 73.3435C3.79512 73.4037 3.48741 73.2036 3.42522 72.8967C3.35128 72.5317 3.28554 72.1651 3.2278 71.7972C3.17927 71.488 3.39914 71.1992 3.7189 71.1523ZM119.973 72.9409C120.185 73.177 120.159 73.5347 119.915 73.7398C119.788 73.8467 119.66 73.9538 119.53 74.061L119.528 74.0626C119.394 74.1731 119.255 74.2859 119.111 74.4008C118.861 74.5997 118.492 74.5652 118.286 74.3238C118.081 74.0825 118.116 73.7255 118.366 73.5266C118.505 73.4157 118.639 73.307 118.769 73.2007C118.896 73.0952 119.022 72.9898 119.147 72.8847C119.391 72.6796 119.761 72.7047 119.973 72.9409ZM113.993 77.2877C114.166 77.552 114.085 77.9018 113.812 78.069C113.511 78.2529 113.204 78.4373 112.891 78.6218C112.615 78.7845 112.254 78.6999 112.086 78.4327C111.918 78.1656 112.005 77.8172 112.282 77.6545C112.589 77.4733 112.891 77.2923 113.185 77.1119C113.459 76.9447 113.82 77.0234 113.993 77.2877ZM5.93946 78.4534C6.22588 78.3081 6.57984 78.4149 6.73004 78.6919C6.81496 78.8485 6.90208 79.0042 6.99142 79.1589C7.06924 79.2937 7.14722 79.4278 7.22538 79.5612C7.3848 79.8333 7.28592 80.1789 7.00453 80.3331C6.72314 80.4872 6.36578 80.3916 6.20636 80.1195C6.12701 79.984 6.04784 79.8479 5.96885 79.7111C5.87448 79.5477 5.78247 79.3833 5.69282 79.2179C5.54261 78.9409 5.65304 78.5986 5.93946 78.4534ZM107.447 80.8621C107.587 81.1444 107.463 81.4824 107.171 81.6169C106.846 81.7663 106.518 81.9139 106.187 82.0593C105.893 82.1887 105.545 82.0627 105.412 81.7779C105.278 81.4931 105.408 81.1574 105.703 81.0281C106.027 80.8855 106.349 80.7407 106.667 80.5942C106.959 80.4597 107.308 80.5797 107.447 80.8621ZM100.491 83.6152C100.589 83.9135 100.418 84.2316 100.109 84.3257C99.9363 84.3785 99.763 84.4303 99.5893 84.4813L99.1142 84.6205C98.8047 84.7112 98.4777 84.5421 98.3839 84.2428C98.2902 83.9434 98.465 83.6272 98.7746 83.5365L99.2495 83.3973C99.419 83.3476 99.588 83.2971 99.7567 83.2456C100.065 83.1515 100.394 83.317 100.491 83.6152ZM9.36273 84.0199C9.63049 83.8445 9.9946 83.9122 10.176 84.1712C10.3496 84.4191 10.524 84.6641 10.6989 84.9063C10.8842 85.1626 10.8195 85.5157 10.5544 85.6949C10.2893 85.874 9.92417 85.8114 9.73892 85.5551C9.56066 85.3084 9.38311 85.0588 9.20631 84.8064C9.02493 84.5474 9.09496 84.1953 9.36273 84.0199ZM93.8061 85.601C93.9036 85.8992 93.7326 86.2174 93.4243 86.3117C93.1095 86.408 92.7948 86.5049 92.4803 86.6026C92.1724 86.6982 91.8426 86.5343 91.7437 86.2365C91.6449 85.9387 91.8143 85.6197 92.1223 85.5241C92.4386 85.4259 92.7549 85.3285 93.0711 85.2318C93.3795 85.1375 93.7085 85.3028 93.8061 85.601ZM87.2113 87.7301C87.3226 88.0238 87.1667 88.3491 86.863 88.4567C86.5537 88.5664 86.245 88.6773 85.9371 88.7896C85.6345 88.9 85.2966 88.7522 85.1825 88.4595C85.0684 88.1669 85.2212 87.8402 85.5239 87.7298C85.8353 87.6162 86.1474 87.5041 86.46 87.3933C86.7636 87.2856 87.1 87.4364 87.2113 87.7301ZM13.2931 89.1281C13.5388 88.9247 13.9084 88.9525 14.1187 89.1901C14.3218 89.4197 14.5257 89.6459 14.7302 89.8688C14.9448 90.1027 14.9227 90.4607 14.6808 90.6683C14.4389 90.8758 14.0688 90.8545 13.8541 90.6205C13.6449 90.3925 13.4365 90.1612 13.2289 89.9266C13.0186 89.6889 13.0473 89.3314 13.2931 89.1281ZM80.7601 90.2339C80.8954 90.518 80.767 90.8543 80.4732 90.9852C80.1748 91.1181 79.8776 91.253 79.5818 91.3898C79.29 91.5248 78.9404 91.4055 78.8008 91.1233C78.6612 90.8412 78.7846 90.5031 79.0764 90.3681C79.3774 90.2288 79.6798 90.0916 79.9832 89.9564C80.277 89.8256 80.6248 89.9498 80.7601 90.2339ZM74.5892 93.3244C74.7585 93.5909 74.6723 93.9397 74.3968 94.1034C74.2574 94.1862 74.1184 94.2696 73.98 94.3538C73.847 94.4346 73.7136 94.5151 73.5797 94.5954C73.3049 94.7602 72.9439 94.6784 72.7734 94.4125C72.603 94.1467 72.6876 93.7976 72.9625 93.6328C73.0944 93.5537 73.2259 93.4743 73.3569 93.3947C73.4987 93.3085 73.641 93.2231 73.7837 93.1383C74.0593 92.9745 74.4199 93.0579 74.5892 93.3244ZM17.8382 93.7357C18.053 93.5019 18.4231 93.4807 18.6649 93.6885C18.8996 93.8902 19.1351 94.0881 19.3711 94.2822C19.6175 94.4848 19.6474 94.8422 19.4379 95.0805C19.2284 95.3188 18.8588 95.3477 18.6124 95.1451C18.3699 94.9456 18.128 94.7423 17.887 94.5352C17.6452 94.3275 17.6234 93.9695 17.8382 93.7357ZM68.8839 96.5609C69.0337 96.8381 68.9228 97.1803 68.6361 97.3252C68.3562 97.4667 68.0748 97.6067 67.7921 97.7452C67.5036 97.8865 67.1512 97.7749 67.0051 97.4959C66.8589 97.2169 66.9744 96.8761 67.2629 96.7348C67.5411 96.5985 67.818 96.4607 68.0936 96.3214C68.3802 96.1765 68.734 96.2837 68.8839 96.5609ZM23.0356 97.6529C23.2088 97.3888 23.5706 97.3104 23.8438 97.4779C24.1039 97.6374 24.3645 97.7929 24.6258 97.9446C24.9031 98.1055 24.993 98.4534 24.8266 98.7216C24.6601 98.9898 24.3004 99.0767 24.0231 98.9158C23.7536 98.7593 23.4848 98.5989 23.2166 98.4345C22.9434 98.267 22.8624 97.9171 23.0356 97.6529ZM62.9317 99.2969C63.0538 99.5866 62.9099 99.9171 62.6104 100.035C62.3171 100.151 62.0228 100.264 61.7275 100.376C61.4263 100.49 61.0867 100.346 60.969 100.054C60.8514 99.7629 61.0002 99.4344 61.3015 99.3207C61.5914 99.2112 61.8804 99.0996 62.1684 98.9862C62.468 98.8681 62.8097 99.0073 62.9317 99.2969ZM28.8347 100.661C28.9563 100.371 29.2978 100.232 29.5975 100.349C29.8846 100.462 30.1721 100.57 30.4601 100.675C30.7629 100.785 30.9163 101.111 30.8027 101.404C30.6891 101.697 30.3515 101.845 30.0487 101.735C29.751 101.627 29.4539 101.515 29.1572 101.399C28.8575 101.281 28.7131 100.951 28.8347 100.661ZM56.7268 101.442C56.8154 101.743 56.6351 102.056 56.324 102.142C56.0189 102.226 55.7131 102.308 55.4065 102.387C55.094 102.467 54.7731 102.288 54.6899 101.985C54.6066 101.683 54.7924 101.373 55.1049 101.292C55.405 101.215 55.7044 101.135 56.0032 101.053C56.3142 100.967 56.6382 101.141 56.7268 101.442ZM35.1032 102.597C35.1676 102.291 35.4768 102.093 35.7937 102.155C36.0973 102.215 36.4011 102.271 36.7052 102.323C37.0237 102.377 37.2363 102.671 37.1801 102.979C37.1239 103.287 36.8202 103.492 36.5017 103.438C36.1877 103.384 35.874 103.327 35.5604 103.265C35.2435 103.203 35.0388 102.904 35.1032 102.597ZM50.3067 102.872C50.3546 103.181 50.1342 103.47 49.8143 103.516C49.5001 103.562 49.1853 103.604 48.8701 103.644C48.5494 103.684 48.2558 103.465 48.2143 103.155C48.1728 102.844 48.3992 102.56 48.72 102.52C49.0273 102.482 49.3342 102.44 49.6408 102.396C49.9606 102.35 50.2588 102.563 50.3067 102.872ZM41.6335 103.406C41.6419 103.093 41.9107 102.847 42.2341 102.855C42.5435 102.862 42.853 102.867 43.1624 102.867C43.4858 102.868 43.7473 103.122 43.7465 103.435C43.7457 103.748 43.4829 104.001 43.1595 104C42.841 103.999 42.5224 103.995 42.2037 103.987C41.8804 103.979 41.6251 103.719 41.6335 103.406Z" fill="#CDCDCD"/>
<path d="M67.7337 103.077C59.7933 103.047 52.9609 101.092 47.2365 97.2145C41.5429 93.3366 37.1572 87.7199 34.0796 80.3643C31.0327 73.0088 29.5246 64.1605 29.5554 53.8196C29.5554 43.5095 31.0788 34.7228 34.1257 27.4595C37.2034 20.1963 41.589 14.6719 47.2827 10.8864C53.0071 7.07007 59.8241 5.16193 67.7337 5.16193C75.6432 5.16193 82.4448 7.07007 88.1385 10.8864C93.8629 14.7026 98.264 20.2424 101.342 27.5057C104.419 34.7382 105.943 43.5095 105.912 53.8196C105.912 64.1913 104.373 73.0549 101.295 80.4105C98.2486 87.7661 93.8783 93.3828 88.1847 97.2607C82.491 101.138 75.674 103.077 67.7337 103.077ZM67.7337 86.5043C73.1503 86.5043 77.4744 83.7805 80.706 78.3331C83.9375 72.8857 85.5379 64.7145 85.5071 53.8196C85.5071 46.6487 84.7685 40.678 83.2912 35.9077C81.8447 31.1373 79.7827 27.5518 77.1051 25.1513C74.4583 22.7507 71.3345 21.5504 67.7337 21.5504C62.3478 21.5504 58.0391 24.2434 54.8075 29.6293C51.576 35.0152 49.9448 43.0786 49.9141 53.8196C49.9141 61.0829 50.6373 67.1458 52.0838 72.0085C53.5611 76.8404 55.6385 80.4721 58.3161 82.9034C60.9936 85.304 64.1328 86.5043 67.7337 86.5043Z" fill="#FCB040"/>
<path d="M114.084 37.8745C114.084 38.6044 113.492 39.1962 112.762 39.1962C112.032 39.1962 111.44 38.6044 111.44 37.8745C111.44 37.1445 112.032 36.5527 112.762 36.5527C113.492 36.5527 114.084 37.1445 114.084 37.8745Z" fill="#387ED1"/>
<path d="M119.804 30.3217C119.804 31.0517 119.212 31.6435 118.482 31.6435C117.752 31.6435 117.161 31.0517 117.161 30.3217C117.161 29.5918 117.752 29 118.482 29C119.212 29 119.804 29.5918 119.804 30.3217Z" fill="#387ED1"/>
<path d="M107.553 45.0495C107.553 45.7795 106.961 46.3712 106.231 46.3712C105.501 46.3712 104.909 45.7795 104.909 45.0495C104.909 44.3195 105.501 43.7278 106.231 43.7278C106.961 43.7278 107.553 44.3195 107.553 45.0495Z" fill="#387ED1"/>
<path d="M132.434 45.0495C132.434 45.7795 131.842 46.3712 131.113 46.3712C130.383 46.3712 129.791 45.7795 129.791 45.0495C129.791 44.3195 130.383 43.7278 131.113 43.7278C131.842 43.7278 132.434 44.3195 132.434 45.0495Z" fill="#387ED1"/>
<path d="M126.525 37.8744C126.525 38.6044 125.934 39.1962 125.204 39.1962C124.474 39.1962 123.882 38.6044 123.882 37.8744C123.882 37.1445 124.474 36.5527 125.204 36.5527C125.934 36.5527 126.525 37.1445 126.525 37.8744Z" fill="#387ED1"/>
<path d="M132.246 30.3217C132.246 31.0517 131.654 31.6435 130.924 31.6435C130.194 31.6435 129.602 31.0517 129.602 30.3217C129.602 29.5918 130.194 29 130.924 29C131.654 29 132.246 29.5918 132.246 30.3217Z" fill="#387ED1"/>
<path d="M119.994 45.0495C119.994 45.7795 119.402 46.3712 118.672 46.3712C117.942 46.3712 117.35 45.7795 117.35 45.0495C117.35 44.3195 117.942 43.7278 118.672 43.7278C119.402 43.7278 119.994 44.3195 119.994 45.0495Z" fill="#387ED1"/>
<path d="M100.643 50.3364C100.643 51.0663 100.052 51.6581 99.3217 51.6581C98.5918 51.6581 98 51.0663 98 50.3364C98 49.6064 98.5918 49.0146 99.3217 49.0146C100.052 49.0146 100.643 49.6064 100.643 50.3364Z" fill="#387ED1"/>
<path d="M114.084 50.3364C114.084 51.0663 113.492 51.6581 112.762 51.6581C112.032 51.6581 111.44 51.0663 111.44 50.3364C111.44 49.6064 112.032 49.0146 112.762 49.0146C113.492 49.0146 114.084 49.6064 114.084 50.3364Z" fill="#387ED1"/>
<path d="M100.643 37.8745C100.643 38.6044 100.052 39.1962 99.3217 39.1962C98.5918 39.1962 98 38.6044 98 37.8745C98 37.1445 98.5918 36.5527 99.3217 36.5527C100.052 36.5527 100.643 37.1445 100.643 37.8745Z" fill="#387ED1"/>
<path d="M107.364 30.3217C107.364 31.0517 106.772 31.6435 106.042 31.6435C105.312 31.6435 104.72 31.0517 104.72 30.3217C104.72 29.5918 105.312 29 106.042 29C106.772 29 107.364 29.5918 107.364 30.3217Z" fill="#387ED1"/>
</svg>
