<svg width="280" height="104" viewBox="0 0 280 104" fill="none" xmlns="http://www.w3.org/2000/svg">
<path d="M65.1946 102.293C58.67 102.293 52.8532 101.092 47.7443 98.6918C42.6662 96.2912 38.6345 92.9827 35.6492 88.7663C32.6638 84.55 31.1096 79.718 30.9865 74.2706H50.3757C50.5912 77.933 52.13 80.9029 54.9922 83.1804C57.8544 85.4579 61.2552 86.5966 65.1946 86.5966C68.3338 86.5966 71.1037 85.9041 73.5043 84.5192C75.9356 83.1035 77.8284 81.1492 79.1825 78.6563C80.5675 76.1326 81.2599 73.2396 81.2599 69.9773C81.2599 66.6534 80.5521 63.7296 79.1364 61.206C77.7514 58.6823 75.8279 56.7126 73.3658 55.2969C70.9037 53.8812 68.0876 53.1579 64.9176 53.1271C62.1477 53.1271 59.4548 53.6965 56.8388 54.8352C54.2536 55.974 52.2377 57.5282 50.7912 59.4979L33.0178 56.3125L37.4957 6.45454H95.294V22.7969H53.9766L51.5298 46.4794H52.0838C53.7457 44.1404 56.254 42.2015 59.6087 40.6626C62.9633 39.1238 66.718 38.3544 70.8729 38.3544C76.5665 38.3544 81.6447 39.6932 86.1073 42.3707C90.5698 45.0483 94.0938 48.7261 96.679 53.4041C99.2642 58.0514 100.541 63.4065 100.511 69.4695C100.541 75.8402 99.0642 81.5031 96.0788 86.4581C93.1243 91.3823 88.9849 95.2602 83.6605 98.0916C78.367 100.892 72.2117 102.293 65.1946 102.293Z" fill="#FCB040"/>
<path d="M151.523 103.077C143.582 103.047 136.75 101.092 131.026 97.2145C125.332 93.3367 120.946 87.7199 117.869 80.3643C114.822 73.0088 113.314 64.1605 113.344 53.8196C113.344 43.5095 114.868 34.7228 117.915 27.4595C120.992 20.1963 125.378 14.6719 131.072 10.8864C136.796 7.07008 143.613 5.16193 151.523 5.16193C159.432 5.16193 166.234 7.07008 171.928 10.8864C177.652 14.7027 182.053 20.2424 185.131 27.5057C188.208 34.7382 189.732 43.5095 189.701 53.8196C189.701 64.1913 188.162 73.0549 185.085 80.4105C182.038 87.7661 177.667 93.3828 171.974 97.2607C166.28 101.138 159.463 103.077 151.523 103.077ZM151.523 86.5043C156.939 86.5043 161.264 83.7805 164.495 78.3331C167.727 72.8857 169.327 64.7145 169.296 53.8196C169.296 46.6487 168.558 40.678 167.08 35.9077C165.634 31.1373 163.572 27.5518 160.894 25.1513C158.247 22.7507 155.124 21.5504 151.523 21.5504C146.137 21.5504 141.828 24.2434 138.597 29.6293C135.365 35.0152 133.734 43.0786 133.703 53.8196C133.703 61.0829 134.426 67.1458 135.873 72.0085C137.35 76.8404 139.428 80.4721 142.105 82.9034C144.783 85.304 147.922 86.5043 151.523 86.5043Z" fill="#FCB040"/>
<path d="M241.025 103.077C233.084 103.047 226.252 101.092 220.528 97.2145C214.834 93.3367 210.448 87.7199 207.371 80.3643C204.324 73.0088 202.816 64.1605 202.846 53.8196C202.846 43.5095 204.37 34.7228 207.417 27.4595C210.494 20.1963 214.88 14.6719 220.574 10.8864C226.298 7.07008 233.115 5.16193 241.025 5.16193C248.934 5.16193 255.736 7.07008 261.43 10.8864C267.154 14.7027 271.555 20.2424 274.633 27.5057C277.71 34.7382 279.234 43.5095 279.203 53.8196C279.203 64.1913 277.664 73.0549 274.586 80.4105C271.54 87.7661 267.169 93.3828 261.476 97.2607C255.782 101.138 248.965 103.077 241.025 103.077ZM241.025 86.5043C246.441 86.5043 250.765 83.7805 253.997 78.3331C257.229 72.8857 258.829 64.7145 258.798 53.8196C258.798 46.6487 258.059 40.678 256.582 35.9077C255.136 31.1373 253.074 27.5518 250.396 25.1513C247.749 22.7507 244.626 21.5504 241.025 21.5504C235.639 21.5504 231.33 24.2434 228.099 29.6293C224.867 35.0152 223.236 43.0786 223.205 53.8196C223.205 61.0829 223.928 67.1458 225.375 72.0085C226.852 76.8404 228.93 80.4721 231.607 82.9034C234.285 85.304 237.424 86.5043 241.025 86.5043Z" fill="#FCB040"/>
<path fill-rule="evenodd" clip-rule="evenodd" d="M152.711 0.547286C152.731 0.234689 153.231 -0.0101928 153.829 0.000326611C154.449 0.0112478 155.075 0.0279822 155.707 0.0507123C156.303 0.0721755 156.753 0.34253 156.712 0.654566C156.671 0.966603 156.155 1.20216 155.558 1.1807C154.952 1.15887 154.351 1.14281 153.756 1.13234C153.159 1.12182 152.69 0.859883 152.711 0.547286ZM143.892 0.904048C144.007 1.21099 143.625 1.50855 143.038 1.56866C142.446 1.6293 141.862 1.69562 141.285 1.76736C140.703 1.83967 140.12 1.65161 139.982 1.34731C139.843 1.04302 140.203 0.737709 140.784 0.665393C141.389 0.59019 142.002 0.520675 142.622 0.457124C143.209 0.397011 143.777 0.597105 143.892 0.904048ZM165.446 1.4224C165.597 1.11984 166.189 0.938846 166.767 1.01813C167.357 1.09907 167.952 1.18508 168.55 1.27628C169.124 1.36378 169.454 1.67814 169.286 1.97842C169.119 2.27871 168.518 2.45121 167.944 2.36371C167.365 2.27536 166.789 2.1921 166.218 2.11379C165.64 2.0345 165.294 1.72496 165.446 1.4224ZM131.689 2.95271C131.962 3.2308 131.753 3.57229 131.222 3.71543C130.685 3.85989 130.158 4.00899 129.64 4.16237C129.12 4.31652 128.46 4.22086 128.165 3.94871C127.87 3.67656 128.053 3.33097 128.574 3.17682C129.116 3.01608 129.668 2.8598 130.231 2.70836C130.762 2.56522 131.415 2.67461 131.689 2.95271ZM177.594 3.61069C177.842 3.32609 178.484 3.20056 179.028 3.3303C179.579 3.46169 180.133 3.59735 180.689 3.73736C181.228 3.87291 181.455 4.21129 181.196 4.49317C180.937 4.77505 180.29 4.89367 179.751 4.75813C179.208 4.62144 178.668 4.48906 178.13 4.36091C177.586 4.23117 177.346 3.89528 177.594 3.61069ZM188.943 6.73497C189.259 6.46945 189.927 6.3882 190.434 6.55351C190.962 6.72546 191.492 6.90123 192.025 7.08087C192.527 7.25039 192.672 7.6009 192.348 7.86375C192.024 8.1266 191.354 8.20225 190.851 8.03273C190.328 7.85632 189.808 7.68378 189.29 7.51505C188.782 7.34975 188.627 7.0005 188.943 6.73497ZM121.034 6.68641C121.441 6.91554 121.415 7.27387 120.978 7.48678C120.533 7.70272 120.101 7.9211 119.682 8.1414C119.26 8.36295 118.574 8.36358 118.151 8.14281C117.727 7.92203 117.726 7.56345 118.148 7.3419C118.587 7.11142 119.039 6.88296 119.504 6.65706C119.942 6.44415 120.627 6.45729 121.034 6.68641ZM199.566 10.5378C199.93 10.2899 200.61 10.2435 201.084 10.4342C201.568 10.629 202.053 10.8269 202.54 11.028C203.01 11.2217 203.09 11.5778 202.72 11.8234C202.35 12.069 201.669 12.111 201.2 11.9173C200.719 11.7191 200.241 11.524 199.764 11.332C199.29 11.1413 199.201 10.7857 199.566 10.5378ZM112.68 11.7845C113.193 11.9453 113.359 12.2932 113.052 12.5614C112.909 12.6861 112.77 12.8102 112.635 12.9337C112.518 13.0741 112.395 13.2139 112.268 13.3532C112.009 13.6352 111.363 13.7543 110.824 13.6192C110.285 13.484 110.057 13.1458 110.315 12.8637C110.44 12.7273 110.56 12.5907 110.673 12.454L110.696 12.4261L110.725 12.3996C110.877 12.2599 111.034 12.1197 111.195 11.9789C111.502 11.7107 112.167 11.6236 112.68 11.7845ZM209.487 14.8152C209.887 14.5827 210.571 14.5638 211.015 14.773C211.249 14.883 211.483 14.9936 211.717 15.105L211.73 15.111C211.963 15.2256 212.206 15.3446 212.459 15.4676C212.896 15.6809 212.92 16.0392 212.513 16.268C212.105 16.4969 211.42 16.5095 210.983 16.2963C210.731 16.1735 210.488 16.0547 210.255 15.9402C210.025 15.8311 209.796 15.7227 209.567 15.615C209.123 15.4058 209.087 15.0477 209.487 14.8152ZM105.772 17.3076C106.21 17.5209 106.233 17.8792 105.826 18.108C105.409 18.3418 104.982 18.5734 104.545 18.8027C104.123 19.0243 103.438 19.0249 103.014 18.8041C102.591 18.5833 102.589 18.2248 103.011 18.0032C103.432 17.7824 103.843 17.5598 104.242 17.3355C104.65 17.1068 105.335 17.0942 105.772 17.3076ZM219.853 19.7436C220.249 19.5093 220.933 19.4872 221.381 19.6944C221.874 19.9224 222.376 20.1537 222.886 20.388C223.336 20.5943 223.38 20.9522 222.986 21.1872C222.592 21.4223 221.908 21.4456 221.458 21.2393C220.946 21.0041 220.442 20.7719 219.947 20.543C219.5 20.3358 219.457 19.9779 219.853 19.7436ZM96.4057 21.7536C96.763 22.0044 96.6639 22.3592 96.1845 22.5461C95.695 22.737 95.2023 22.9252 94.7075 23.1107C94.2215 23.2929 93.5453 23.2344 93.1971 22.9802C92.8489 22.7259 92.9606 22.3721 93.4466 22.19C93.9308 22.0085 94.4125 21.8244 94.891 21.6379C95.3703 21.451 96.0485 21.5028 96.4057 21.7536ZM230.501 24.5621C230.885 24.3224 231.567 24.291 232.025 24.492C232.536 24.716 233.05 24.9404 233.566 25.1648C234.026 25.3647 234.089 25.7218 233.707 25.9623C233.324 26.2028 232.642 26.2358 232.182 26.0358C231.664 25.8104 231.148 25.585 230.635 25.3599C230.176 25.159 230.116 24.8018 230.501 24.5621ZM85.8908 25.4396C86.1912 25.71 86.0156 26.0566 85.4987 26.2138C84.9657 26.3758 84.4368 26.5339 83.9133 26.6878C83.3922 26.841 82.7322 26.7442 82.4394 26.4715C82.1465 26.1988 82.3316 25.8536 82.8527 25.7003C83.3673 25.549 83.8872 25.3937 84.4111 25.2344C84.928 25.0773 85.5905 25.1692 85.8908 25.4396ZM74.6835 28.5189C74.9241 28.8052 74.6754 29.1394 74.1281 29.2652C73.8418 29.3311 73.5627 29.3942 73.2915 29.4545L73.2789 29.4574L73.2661 29.46C72.9832 29.5186 72.7018 29.5781 72.4217 29.6387C71.8692 29.7582 71.2362 29.6207 71.0078 29.3317C70.7795 29.0426 71.0422 28.7114 71.5947 28.5919C71.8806 28.5301 72.1679 28.4693 72.4566 28.4095C72.7158 28.3518 72.9827 28.2914 73.257 28.2283C73.8043 28.1024 74.443 28.2326 74.6835 28.5189ZM241.412 29.216C241.78 28.9693 242.46 28.9252 242.932 29.1175C243.461 29.3334 243.989 29.5474 244.516 29.7593C244.99 29.9499 245.079 30.3055 244.715 30.5534C244.35 30.8014 243.671 30.8479 243.197 30.6573C242.666 30.4438 242.134 30.2282 241.601 30.0108C241.129 29.8186 241.045 29.4627 241.412 29.216ZM63.0845 31.4927C63.405 31.7567 63.2557 32.1067 62.751 32.2743C62.2371 32.4451 61.7291 32.6191 61.227 32.7961C60.7312 32.9709 60.0585 32.9024 59.7244 32.643C59.3903 32.3836 59.5213 32.0317 60.0171 31.8569C60.5353 31.6742 61.0597 31.4945 61.5904 31.3182C62.0951 31.1505 62.764 31.2286 63.0845 31.4927ZM252.718 33.6062C253.053 33.3473 253.726 33.2797 254.221 33.4553C254.497 33.5532 254.771 33.6497 255.044 33.7448L255.062 33.751L255.079 33.7576C255.328 33.8523 255.578 33.9503 255.828 34.0517C256.301 34.2431 256.387 34.5989 256.021 34.8462C255.655 35.0935 254.975 35.1387 254.503 34.9472C254.276 34.8553 254.049 34.7664 253.824 34.6806C253.553 34.586 253.28 34.49 253.006 34.3927C252.511 34.2172 252.382 33.865 252.718 33.6062ZM52.723 35.5502C53.128 35.7803 53.0999 36.1385 52.6602 36.3504C52.2111 36.5669 51.7683 36.7854 51.3318 37.0058C50.9016 37.223 50.2163 37.2167 49.8012 36.9916C49.386 36.7665 49.3982 36.408 49.8284 36.1908C50.2768 35.9644 50.7318 35.7399 51.1934 35.5174C51.6331 35.3055 52.3179 35.3202 52.723 35.5502ZM261.966 38.2179C262.464 38.0445 263.136 38.1149 263.467 38.3752C263.811 38.645 264.145 38.9226 264.468 39.2078C264.774 39.4768 264.604 39.8242 264.09 39.9838C263.576 40.1434 262.912 40.0547 262.607 39.7857C262.303 39.5177 261.989 39.2569 261.666 39.0032C261.334 38.7429 261.469 38.3913 261.966 38.2179ZM43.7934 40.4549C44.2604 40.6502 44.3364 41.0065 43.9632 41.2509C43.5804 41.5015 43.2045 41.7527 42.8357 42.0043C42.4719 42.2525 41.7924 42.2994 41.318 42.1091C40.8436 41.9188 40.754 41.5633 41.1178 41.3151C41.4953 41.0575 41.88 40.8003 42.272 40.5437C42.6452 40.2994 43.3264 40.2596 43.7934 40.4549ZM267.307 44.2499C267.891 44.1835 268.468 44.3775 268.595 44.6831C268.726 44.9999 268.843 45.3218 268.944 45.6487C269.039 45.9575 268.638 46.2482 268.048 46.2981C267.457 46.3479 266.902 46.138 266.807 45.8292C266.712 45.5225 266.602 45.2206 266.479 44.9235C266.352 44.6178 266.723 44.3162 267.307 44.2499ZM36.2985 45.9799C36.8115 46.1405 36.9785 46.4883 36.6716 46.7567C36.5144 46.8941 36.3594 47.0311 36.2066 47.1676C36.0674 47.2919 35.9305 47.4167 35.7957 47.542C35.5024 47.8145 34.8423 47.9111 34.3214 47.7576C33.8004 47.6042 33.6159 47.2589 33.9091 46.9863C34.05 46.8555 34.1931 46.7251 34.3385 46.5952C34.4947 46.4556 34.6532 46.3156 34.8138 46.1751C35.1208 45.9067 35.7855 45.8193 36.2985 45.9799ZM268.074 50.8816C268.665 50.9268 269.075 51.2144 268.988 51.5239C268.899 51.844 268.794 52.1672 268.674 52.4935C268.56 52.8005 267.993 53.0014 267.406 52.942C266.819 52.8826 266.435 52.5856 266.548 52.2785C266.663 51.9692 266.762 51.663 266.846 51.3601C266.933 51.0506 267.482 50.8364 268.074 50.8816ZM31.1036 51.5611C31.6691 51.6626 31.9703 51.9846 31.7764 52.2805C31.5972 52.5539 31.4248 52.8288 31.2587 53.105C31.0794 53.4034 30.4717 53.5692 29.9014 53.4754C29.3311 53.3816 29.0141 53.0636 29.1935 52.7652C29.3649 52.48 29.5431 52.196 29.7285 51.9131C29.9224 51.6172 30.5381 51.4596 31.1036 51.5611ZM264.689 57.2976C265.234 57.4267 265.475 57.7624 265.228 58.0472C264.975 58.3395 264.709 58.6335 264.43 58.9293C264.166 59.2098 263.517 59.3249 262.981 59.1865C262.444 59.0481 262.224 58.7085 262.489 58.4281C262.757 58.1432 263.013 57.8604 263.257 57.5796C263.503 57.2947 264.145 57.1684 264.689 57.2976ZM28.0312 57.5196C28.6192 57.5759 29.0087 57.871 28.9011 58.1786C28.801 58.4648 28.7053 58.7517 28.6136 59.0392C28.5152 59.3477 27.9574 59.5561 27.3677 59.5046C26.7781 59.4531 26.3798 59.1613 26.4781 58.8528C26.5716 58.5597 26.6693 58.267 26.7715 57.9747C26.8791 57.6671 27.4431 57.4633 28.0312 57.5196ZM258.431 63.1093C258.917 63.2915 259.028 63.6453 258.68 63.8995C258.327 64.1579 257.963 64.4174 257.589 64.6779C257.23 64.928 256.551 64.9785 256.073 64.7907C255.595 64.6029 255.499 64.2479 255.858 63.9978C256.222 63.744 256.576 63.4914 256.92 63.24C257.268 62.9857 257.945 62.9272 258.431 63.1093ZM26.3601 63.6329C26.9551 63.6636 27.3898 63.9409 27.331 64.2521C27.3035 64.3978 27.2765 64.5435 27.25 64.6893C27.2177 64.8672 27.1882 65.0452 27.1617 65.2234C27.1154 65.5352 26.5946 65.7683 25.9986 65.7441C25.4025 65.7198 24.9569 65.4473 25.0033 65.1355C25.0308 64.9508 25.0613 64.7663 25.0948 64.582C25.1216 64.435 25.1488 64.2879 25.1765 64.1409C25.2353 63.8296 25.7652 63.6022 26.3601 63.6329ZM250.39 68.2905C250.824 68.5054 250.843 68.8639 250.432 69.0911C250.017 69.3212 249.593 69.5519 249.161 69.7834C248.743 70.0072 248.058 70.0115 247.63 69.793C247.202 69.5745 247.194 69.2159 247.612 68.9921C248.036 68.7649 248.452 68.5384 248.86 68.3128C249.27 68.0855 249.956 68.0756 250.39 68.2905ZM26.3289 71.1523C26.9199 71.1054 27.4718 71.318 27.5615 71.6272C27.6637 71.9794 27.7799 72.3301 27.9106 72.6789C28.0255 72.9858 27.6431 73.2834 27.0564 73.3435C26.4698 73.4037 25.901 73.2036 25.786 72.8967C25.6493 72.5317 25.5278 72.1651 25.4211 71.7972C25.3314 71.488 25.7378 71.1992 26.3289 71.1523ZM241.223 72.9409C241.615 73.177 241.567 73.5347 241.116 73.7398C240.88 73.8467 240.643 73.9538 240.404 74.061L240.401 74.0626C240.153 74.1731 239.895 74.2859 239.629 74.4008C239.167 74.5997 238.485 74.5652 238.105 74.3238C237.725 74.0825 237.791 73.7255 238.252 73.5266C238.509 73.4157 238.758 73.307 238.996 73.2007C239.231 73.0952 239.465 72.9898 239.696 72.8847C240.147 72.6796 240.831 72.7047 241.223 72.9409ZM230.169 77.2877C230.489 77.552 230.339 77.9018 229.834 78.069C229.278 78.2529 228.711 78.4373 228.132 78.6218C227.621 78.7845 226.955 78.6999 226.644 78.4327C226.333 78.1656 226.495 77.8172 227.005 77.6545C227.574 77.4733 228.131 77.2923 228.676 77.1119C229.181 76.9447 229.85 77.0234 230.169 77.2877ZM30.4335 78.4534C30.963 78.3081 31.6173 78.4149 31.8949 78.6919C32.0519 78.8485 32.2129 79.0042 32.3781 79.1589C32.5219 79.2937 32.6661 79.4278 32.8105 79.5612C33.1052 79.8333 32.9225 80.1789 32.4023 80.3331C31.8822 80.4872 31.2216 80.3916 30.9269 80.1195C30.7802 79.984 30.6339 79.8479 30.4879 79.7111C30.3134 79.5477 30.1434 79.3833 29.9776 79.2179C29.7 78.9409 29.9041 78.5986 30.4335 78.4534ZM218.07 80.8621C218.327 81.1444 218.097 81.4824 217.558 81.6169C216.958 81.7663 216.352 81.9139 215.74 82.0593C215.195 82.1887 214.554 82.0627 214.306 81.7779C214.059 81.4932 214.3 81.1574 214.844 81.0281C215.444 80.8855 216.039 80.7407 216.627 80.5942C217.167 80.4597 217.813 80.5797 218.07 80.8621ZM205.211 83.6152C205.391 83.9135 205.075 84.2316 204.505 84.3257C204.185 84.3785 203.865 84.4303 203.544 84.4813L202.666 84.6205C202.094 84.7112 201.489 84.5421 201.316 84.2428C201.142 83.9434 201.466 83.6272 202.038 83.5365L202.916 83.3973C203.229 83.3476 203.541 83.2971 203.853 83.2456C204.423 83.1515 205.031 83.317 205.211 83.6152ZM36.7614 84.0199C37.2564 83.8445 37.9294 83.9122 38.2647 84.1712C38.5857 84.4191 38.9079 84.6641 39.2314 84.9063C39.5738 85.1626 39.4542 85.5157 38.9641 85.6949C38.4741 85.874 37.7992 85.8114 37.4568 85.5551C37.1273 85.3084 36.7991 85.0588 36.4723 84.8064C36.137 84.5474 36.2664 84.1953 36.7614 84.0199ZM192.854 85.601C193.034 85.8992 192.718 86.2174 192.148 86.3117C191.566 86.408 190.984 86.5049 190.403 86.6026C189.834 86.6982 189.224 86.5343 189.041 86.2365C188.859 85.9387 189.172 85.6197 189.741 85.5241C190.326 85.4259 190.911 85.3285 191.495 85.2318C192.065 85.1375 192.673 85.3028 192.854 85.601ZM180.663 87.7301C180.869 88.0238 180.581 88.3491 180.02 88.4567C179.448 88.5664 178.877 88.6773 178.308 88.7896C177.749 88.9 177.124 88.7522 176.913 88.4595C176.702 88.1669 176.985 87.8402 177.544 87.7298C178.12 87.6162 178.697 87.5041 179.274 87.3933C179.836 87.2856 180.458 87.4364 180.663 87.7301ZM44.0266 89.1281C44.4808 88.9247 45.1641 88.9525 45.5528 89.1901C45.9282 89.4197 46.305 89.6459 46.683 89.8688C47.0798 90.1027 47.039 90.4607 46.5918 90.6683C46.1446 90.8758 45.4605 90.8545 45.0637 90.6205C44.677 90.3925 44.2917 90.1612 43.9079 89.9266C43.5192 89.6889 43.5723 89.3314 44.0266 89.1281ZM168.738 90.2339C168.988 90.518 168.751 90.8543 168.208 90.9852C167.656 91.1181 167.107 91.253 166.56 91.3898C166.021 91.5248 165.375 91.4055 165.117 91.1233C164.859 90.8412 165.087 90.5031 165.626 90.3681C166.183 90.2288 166.741 90.0916 167.302 89.9564C167.845 89.8256 168.488 89.9498 168.738 90.2339ZM157.332 93.3244C157.644 93.5909 157.485 93.9397 156.976 94.1034C156.718 94.1862 156.461 94.2696 156.205 94.3538C155.96 94.4346 155.713 94.5151 155.466 94.5954C154.957 94.7602 154.29 94.6784 153.975 94.4125C153.66 94.1467 153.817 93.7976 154.325 93.6328C154.568 93.5537 154.811 93.4743 155.054 93.3947C155.316 93.3085 155.579 93.2231 155.843 93.1383C156.352 92.9745 157.019 93.0579 157.332 93.3244ZM52.4282 93.7357C52.8253 93.5019 53.5094 93.4807 53.9564 93.6885C54.3902 93.8902 54.8254 94.0881 55.2618 94.2822C55.7172 94.4848 55.7725 94.8422 55.3852 95.0805C54.998 95.3188 54.3148 95.3477 53.8594 95.1451C53.4109 94.9456 52.9639 94.7423 52.5184 94.5352C52.0715 94.3275 52.0311 93.9695 52.4282 93.7357ZM146.785 96.5609C147.062 96.8381 146.857 97.1803 146.327 97.3252C145.81 97.4667 145.29 97.6067 144.767 97.7452C144.234 97.8865 143.583 97.7749 143.312 97.4959C143.042 97.2169 143.256 96.8761 143.789 96.7348C144.303 96.5985 144.815 96.4607 145.325 96.3214C145.854 96.1765 146.508 96.2837 146.785 96.5609ZM62.0355 97.6529C62.3557 97.3888 63.0245 97.3104 63.5294 97.4779C64.0102 97.6374 64.492 97.7929 64.975 97.9446C65.4876 98.1055 65.6537 98.4534 65.3461 98.7216C65.0384 98.9898 64.3735 99.0767 63.8609 98.9158C63.3627 98.7593 62.8657 98.5989 62.37 98.4345C61.8652 98.267 61.7154 97.9171 62.0355 97.6529ZM135.783 99.2969C136.008 99.5866 135.743 99.9171 135.189 100.035C134.647 100.151 134.103 100.264 133.557 100.376C133 100.49 132.372 100.346 132.155 100.054C131.937 99.7629 132.213 99.4344 132.769 99.3207C133.305 99.2112 133.84 99.0996 134.372 98.9862C134.926 98.8681 135.557 99.0073 135.783 99.2969ZM72.7551 100.661C72.9798 100.371 73.6111 100.232 74.1651 100.349C74.6958 100.462 75.2273 100.57 75.7596 100.675C76.3194 100.785 76.6029 101.111 76.3928 101.404C76.1828 101.697 75.5588 101.845 74.9991 101.735C74.4489 101.627 73.8996 101.515 73.3512 101.399C72.7972 101.281 72.5303 100.951 72.7551 100.661ZM124.313 101.442C124.477 101.743 124.144 102.056 123.569 102.142C123.005 102.226 122.439 102.308 121.873 102.387C121.295 102.467 120.702 102.288 120.548 101.985C120.394 101.683 120.738 101.373 121.315 101.292C121.87 101.215 122.423 101.135 122.976 101.053C123.55 100.967 124.149 101.141 124.313 101.442ZM84.3423 102.597C84.4614 102.291 85.0329 102.093 85.6187 102.155C86.1799 102.215 86.7415 102.271 87.3035 102.323C87.8923 102.377 88.2853 102.671 88.1814 102.979C88.0776 103.287 87.5161 103.492 86.9274 103.438C86.347 103.384 85.767 103.327 85.1874 103.265C84.6015 103.203 84.2232 102.904 84.3423 102.597ZM112.446 102.872C112.534 103.181 112.127 103.47 111.536 103.516C110.955 103.562 110.373 103.604 109.79 103.644C109.197 103.684 108.655 103.465 108.578 103.155C108.501 102.844 108.92 102.56 109.513 102.52C110.081 102.482 110.648 102.44 111.215 102.396C111.806 102.35 112.357 102.563 112.446 102.872ZM96.4134 103.406C96.4289 103.093 96.9259 102.847 97.5235 102.855C98.0956 102.862 98.6676 102.867 99.2395 102.867C99.8373 102.868 100.321 103.122 100.319 103.435C100.318 103.748 99.832 104.001 99.2342 104C98.6456 103.999 98.0566 103.995 97.4675 103.987C96.8699 103.979 96.3979 103.719 96.4134 103.406Z" fill="#CDCDCD"/>
<path d="M16.9475 20.5611L16.1023 23.4446H-0.00567627L0.839494 20.5611H16.9475ZM9.39063 40L0.292619 28.8636L0.242903 26.7756H4.76705C5.94366 26.7756 6.94627 26.6098 7.77486 26.2784C8.60346 25.9387 9.23734 25.4332 9.6765 24.7621C10.1157 24.0826 10.3352 23.2292 10.3352 22.2017C10.3352 20.6854 9.8795 19.4963 8.96805 18.6346C8.05659 17.7646 6.65626 17.3295 4.76705 17.3295H-0.00567627L0.839494 14.5455H4.76705C6.78883 14.5455 8.44603 14.881 9.73864 15.5522C11.0395 16.2151 12.0007 17.1265 12.6222 18.2866C13.2519 19.4383 13.5668 20.7434 13.5668 22.2017C13.5668 23.5192 13.2768 24.7331 12.6967 25.8434C12.125 26.9454 11.2053 27.832 9.93751 28.5032C8.67804 29.1744 7.01255 29.5099 4.94106 29.5099H4.86648L13.2685 39.8011V40H9.39063ZM16.9475 14.5455L16.1023 17.429L3.42472 17.3295L4.26989 14.5455H16.9475Z" fill="#FCB040"/>
<path d="M22.0839 81.8745C22.0839 82.6045 21.4921 83.1962 20.7622 83.1962C20.0322 83.1962 19.4404 82.6045 19.4404 81.8745C19.4404 81.1446 20.0322 80.5528 20.7622 80.5528C21.4921 80.5528 22.0839 81.1446 22.0839 81.8745Z" fill="#387ED1"/>
<path d="M27.8041 74.3218C27.8041 75.0518 27.2123 75.6435 26.4824 75.6435C25.7524 75.6435 25.1607 75.0518 25.1607 74.3218C25.1607 73.5918 25.7524 73.0001 26.4824 73.0001C27.2123 73.0001 27.8041 73.5918 27.8041 74.3218Z" fill="#387ED1"/>
<path d="M15.5526 89.0496C15.5526 89.7795 14.9609 90.3713 14.2309 90.3713C13.5009 90.3713 12.9092 89.7795 12.9092 89.0496C12.9092 88.3196 13.5009 87.7278 14.2309 87.7278C14.9609 87.7278 15.5526 88.3196 15.5526 89.0496Z" fill="#387ED1"/>
<path d="M40.4342 89.0496C40.4342 89.7795 39.8425 90.3713 39.1125 90.3713C38.3825 90.3713 37.7908 89.7795 37.7908 89.0496C37.7908 88.3196 38.3825 87.7278 39.1125 87.7278C39.8425 87.7278 40.4342 88.3196 40.4342 89.0496Z" fill="#387ED1"/>
<path d="M34.5255 81.8745C34.5255 82.6045 33.9337 83.1962 33.2037 83.1962C32.4738 83.1962 31.882 82.6045 31.882 81.8745C31.882 81.1445 32.4738 80.5528 33.2037 80.5528C33.9337 80.5528 34.5255 81.1445 34.5255 81.8745Z" fill="#387ED1"/>
<path d="M40.2458 74.3218C40.2458 75.0518 39.654 75.6435 38.924 75.6435C38.1941 75.6435 37.6023 75.0518 37.6023 74.3218C37.6023 73.5918 38.1941 73.0001 38.924 73.0001C39.654 73.0001 40.2458 73.5918 40.2458 74.3218Z" fill="#387ED1"/>
<path d="M27.9938 89.0496C27.9938 89.7795 27.402 90.3713 26.6721 90.3713C25.9421 90.3713 25.3503 89.7795 25.3503 89.0496C25.3503 88.3196 25.9421 87.7278 26.6721 87.7278C27.402 87.7278 27.9938 88.3196 27.9938 89.0496Z" fill="#387ED1"/>
<path d="M8.64346 94.3364C8.64346 95.0664 8.0517 95.6582 7.32173 95.6582C6.59176 95.6582 6.00001 95.0664 6.00001 94.3364C6.00001 93.6065 6.59176 93.0147 7.32173 93.0147C8.0517 93.0147 8.64346 93.6065 8.64346 94.3364Z" fill="#387ED1"/>
<path d="M22.0839 94.3364C22.0839 95.0664 21.4921 95.6582 20.7622 95.6582C20.0322 95.6582 19.4404 95.0664 19.4404 94.3364C19.4404 93.6065 20.0322 93.0147 20.7622 93.0147C21.4921 93.0147 22.0839 93.6065 22.0839 94.3364Z" fill="#387ED1"/>
<path d="M8.64346 81.8745C8.64346 82.6045 8.0517 83.1962 7.32173 83.1962C6.59176 83.1962 6.00001 82.6045 6.00001 81.8745C6.00001 81.1446 6.59176 80.5528 7.32173 80.5528C8.0517 80.5528 8.64346 81.1446 8.64346 81.8745Z" fill="#387ED1"/>
<path d="M15.3637 74.3218C15.3637 75.0518 14.7719 75.6435 14.0419 75.6435C13.312 75.6435 12.7202 75.0518 12.7202 74.3218C12.7202 73.5918 13.312 73.0001 14.0419 73.0001C14.7719 73.0001 15.3637 73.5918 15.3637 74.3218Z" fill="#387ED1"/>
</svg>
